<?xml version="1.0" standalone="no"?>
<!DOCTYPE svg PUBLIC "-//W3C//DTD SVG 20010904//EN"
 "http://www.w3.org/TR/2001/REC-SVG-20010904/DTD/svg10.dtd">
<svg version="1.0" xmlns="http://www.w3.org/2000/svg"
 width="4000.000000pt" height="2675.000000pt" viewBox="0 0 4000.000000 2675.000000"
 preserveAspectRatio="xMidYMid meet">
<metadata>
Created by potrace 1.16, written by Peter Selinger 2001-2019
</metadata>
<g transform="translate(0.000000,2675.000000) scale(0.100000,-0.100000)"
fill="#000000" stroke="none">
<path d="M14115 25791 c-48 -29 -77 -66 -73 -92 4 -33 30 -35 66 -4 36 30 53
31 75 7 21 -23 23 -120 4 -172 -15 -43 -85 -155 -121 -194 -16 -16 -26 -37
-24 -50 3 -20 9 -21 112 -24 122 -3 146 7 146 60 0 33 -24 47 -51 30 -23 -15
-86 -16 -94 -2 -7 11 18 57 41 75 21 18 64 105 64 130 0 14 5 25 10 25 16 0
12 113 -5 154 -16 38 -66 76 -100 76 -11 0 -33 -8 -50 -19z"/>
<path d="M14405 25796 c-39 -17 -61 -44 -69 -81 -10 -52 6 -61 46 -26 44 39
61 39 87 2 50 -69 19 -164 -110 -344 -59 -83 -54 -88 87 -85 l116 3 13 39 c8
22 12 43 9 48 -7 11 -38 10 -51 -3 -13 -13 -95 -8 -100 7 -2 7 8 25 23 40 14
16 33 43 41 59 9 17 23 39 33 50 28 32 51 188 31 208 -6 6 -11 19 -11 28 0 19
-50 54 -90 63 -14 3 -38 0 -55 -8z"/>
<path d="M14973 25794 c-52 -22 -73 -76 -73 -182 0 -124 23 -167 90 -174 33
-3 35 -5 33 -36 -1 -40 -42 -95 -82 -112 -32 -13 -41 -37 -18 -46 20 -7 89 25
125 59 19 18 50 63 69 102 33 64 36 68 49 50 8 -10 14 -35 14 -55 0 -25 10
-50 30 -78 41 -57 73 -76 112 -68 33 6 68 32 68 49 0 5 10 23 23 40 20 30 22
42 22 182 l0 150 -33 56 c-57 100 -123 102 -188 5 -19 -28 -34 -61 -34 -73 0
-38 -13 -26 -45 40 -19 40 -42 70 -64 85 -39 25 -53 26 -98 6z m64 -66 c33
-37 43 -64 43 -120 0 -122 -86 -134 -109 -15 -9 52 -1 118 19 142 17 20 23 19
47 -7z m295 0 c19 -34 23 -321 6 -373 -17 -52 -39 -56 -61 -10 -24 50 -25 306
-1 365 18 45 37 51 56 18z"/>
<path d="M14763 25788 c-13 -17 -43 -84 -43 -95 0 -4 -11 -20 -25 -35 -14 -15
-25 -35 -25 -45 0 -10 -10 -38 -22 -63 -42 -87 -50 -117 -38 -141 8 -14 22
-19 56 -19 65 0 84 -13 84 -58 1 -87 60 -95 70 -9 3 25 13 54 23 65 23 25 22
57 -3 82 -18 18 -20 33 -20 163 0 142 -5 167 -36 167 -6 0 -16 -6 -21 -12z"/>
<path d="M35635 25641 c-50 -13 -105 -39 -105 -50 0 -6 -6 -11 -13 -11 -27 0
-85 -62 -115 -123 -29 -58 -32 -74 -32 -153 0 -54 6 -106 16 -134 20 -58 95
-145 142 -166 20 -8 45 -20 54 -25 22 -11 162 -12 186 0 9 4 35 17 57 27 57
27 88 60 124 130 29 58 31 68 31 170 0 93 -3 113 -20 134 -11 14 -20 31 -20
38 0 22 -103 117 -151 139 -53 25 -113 34 -154 24z m120 -131 c3 -5 13 -10 21
-10 18 0 34 -16 53 -52 8 -16 18 -28 23 -28 4 0 8 -9 8 -20 0 -11 5 -40 12
-64 15 -55 -4 -147 -39 -189 -13 -16 -23 -32 -23 -37 0 -13 -60 -39 -95 -41
-89 -6 -123 1 -153 31 -17 17 -34 30 -39 30 -34 0 -50 235 -21 292 14 26 56
65 93 86 25 14 152 16 160 2z"/>
<path d="M36260 25631 c-8 -5 -28 -15 -44 -22 -53 -25 -117 -91 -144 -148 -22
-49 -26 -70 -26 -161 -1 -97 1 -110 28 -163 33 -66 122 -147 161 -147 13 0 27
-4 30 -10 3 -5 39 -10 80 -10 41 0 77 5 80 10 3 6 15 10 26 10 40 0 149 89
149 122 0 10 4 26 9 36 30 59 44 223 21 237 -5 3 -10 18 -10 32 0 28 -39 123
-50 123 -4 0 -25 14 -46 31 -66 52 -111 69 -183 68 -36 0 -73 -4 -81 -8z m184
-130 c45 -26 67 -62 82 -135 10 -49 11 -84 5 -132 -18 -121 -72 -169 -193
-168 -60 1 -72 5 -113 35 -60 45 -80 108 -72 221 8 93 23 126 79 167 38 28 49
31 112 30 48 0 81 -6 100 -18z"/>
<path d="M36955 25630 c-3 -5 -16 -10 -29 -10 -12 0 -40 -13 -62 -30 -21 -16
-44 -30 -50 -30 -5 0 -21 -19 -34 -42 -66 -121 -65 -118 -65 -225 0 -89 3
-105 23 -132 12 -16 22 -36 22 -43 0 -36 112 -128 155 -128 13 0 27 -4 30 -10
3 -5 44 -10 90 -10 46 0 87 5 90 10 3 6 18 10 33 11 15 0 52 17 82 37 l55 38
3 94 c5 151 15 141 -141 138 l-132 -3 -3 -26 c-5 -41 24 -58 103 -61 l70 -3 3
-38 c4 -43 -18 -77 -49 -77 -10 0 -21 -4 -24 -10 -9 -14 -158 -13 -192 2 -32
14 -73 47 -73 60 0 5 -10 23 -22 39 -20 26 -23 43 -23 113 0 78 2 85 38 138
48 73 79 88 178 88 74 0 79 -1 111 -33 18 -18 41 -43 51 -55 17 -22 32 -23 85
-6 21 6 13 37 -22 93 -36 55 -48 65 -124 101 -47 22 -166 28 -177 10z"/>
<path d="M37806 25615 c-65 -31 -131 -98 -161 -162 -21 -44 -25 -66 -25 -153
0 -87 3 -109 25 -154 32 -69 101 -143 140 -151 17 -3 38 -10 47 -16 24 -12
165 -12 173 1 3 6 17 10 31 10 16 0 44 19 82 58 52 50 62 66 81 132 27 97 27
149 -5 248 -22 70 -32 87 -74 125 -100 90 -212 112 -314 62z m220 -125 c24
-17 44 -32 44 -33 0 -1 9 -27 20 -57 39 -108 21 -218 -47 -287 -34 -34 -50
-43 -80 -45 -72 -3 -108 3 -152 25 -61 30 -91 97 -91 201 0 100 26 157 88 197
38 24 56 29 110 29 54 0 70 -4 108 -30z"/>
<path d="M38327 25613 c-4 -3 -7 -144 -7 -313 0 -323 1 -330 46 -330 42 0 54
34 54 155 0 73 4 115 12 123 8 8 52 12 130 12 114 0 118 1 134 25 15 23 15 27
0 50 -16 24 -20 25 -130 25 -63 0 -121 3 -130 6 -12 5 -16 21 -16 65 0 47 4
60 19 69 11 5 75 10 143 10 144 0 168 9 168 64 0 22 -6 36 -16 40 -21 8 -399
8 -407 -1z"/>
<path d="M26216 25338 c-12 -17 -16 -50 -16 -144 0 -90 -4 -124 -13 -133 -10
-8 -3040 -11 -11411 -11 -6269 0 -11402 2 -11407 6 -5 3 0 17 11 31 26 33 25
61 -1 89 -17 18 -26 21 -46 13 -13 -5 -32 -16 -40 -25 -25 -24 -33 -1 -33 94
l0 83 -27 -3 -28 -3 -3 -129 c-1 -75 -7 -135 -14 -143 -8 -9 -45 -13 -138 -13
-109 0 -129 -2 -134 -16 -13 -33 13 -44 100 -44 46 0 84 -2 84 -5 0 -3 -10
-19 -22 -35 -19 -27 -20 -32 -7 -56 18 -35 47 -45 82 -27 15 7 32 11 37 8 6
-4 10 -170 10 -438 0 -238 4 -438 9 -445 5 -8 17 -12 27 -10 18 3 19 22 21
483 2 345 6 486 15 502 l11 23 11415 0 11414 0 -16 -25 c-39 -59 2 -133 60
-106 14 6 29 11 34 11 6 0 10 -164 10 -431 0 -428 3 -469 34 -469 39 0 41 15
46 524 l5 491 138 3 138 3 -3 27 c-3 27 -3 27 -95 30 -54 2 -93 7 -93 13 0 5
9 22 21 38 17 24 19 31 8 54 -14 32 -54 45 -80 28 -32 -19 -36 -13 -41 68 -3
54 -10 84 -21 95 -20 21 -23 20 -41 -6z"/>
<path d="M33560 25298 c-17 -23 -33 -53 -37 -67 -3 -14 -21 -48 -38 -76 -18
-27 -36 -61 -40 -75 -4 -14 -25 -53 -46 -87 -21 -35 -44 -80 -51 -100 -7 -21
-25 -58 -40 -82 -16 -25 -28 -48 -28 -52 0 -4 -22 -45 -50 -90 -27 -45 -50
-90 -50 -99 0 -10 -12 -34 -26 -56 -31 -45 -84 -152 -84 -169 0 -7 -8 -19 -18
-29 -11 -9 -25 -35 -33 -59 -7 -23 -16 -44 -19 -47 -13 -12 -110 -202 -110
-216 0 -6 -9 -19 -20 -29 -11 -10 -20 -25 -20 -33 0 -17 -56 -130 -75 -152 -7
-8 -25 -44 -40 -80 -15 -36 -33 -72 -41 -81 -8 -8 -14 -23 -14 -32 0 -8 -17
-42 -38 -74 -21 -32 -44 -71 -51 -88 -7 -16 -17 -38 -22 -47 -5 -10 -9 -24 -9
-31 0 -8 -9 -22 -20 -32 -11 -10 -20 -23 -20 -28 0 -14 -70 -149 -88 -169 -8
-10 -28 -18 -43 -18 -36 0 -46 -17 -85 -145 -8 -27 -20 -63 -26 -80 -5 -16
-15 -43 -20 -60 -6 -16 -15 -38 -19 -47 -5 -10 -9 -27 -9 -38 0 -21 -15 -52
-39 -82 -13 -16 -40 -18 -307 -18 -223 0 -295 -3 -301 -12 -6 -11 -12 -201
-10 -328 0 -14 1 -1424 3 -3133 1 -2170 5 -3112 12 -3119 22 -22 122 -27 617
-27 499 -1 620 5 637 31 4 7 8 1487 8 3289 0 2534 -3 3278 -12 3287 -9 9 -86
12 -285 12 -223 0 -275 3 -279 14 -5 14 24 58 163 242 46 60 83 115 83 123 0
8 -10 25 -22 38 -19 20 -20 27 -10 43 7 11 12 24 12 30 0 6 17 38 38 73 20 34
42 73 48 87 6 14 17 39 25 55 7 17 21 42 31 57 10 14 18 32 18 39 0 7 7 20 15
29 8 8 60 106 116 215 56 110 110 212 120 227 11 14 19 31 19 37 0 6 9 26 20
46 11 20 20 42 20 49 0 7 7 19 15 26 12 10 135 246 226 435 16 33 34 67 39 75
6 8 21 39 34 67 14 29 36 68 50 86 14 19 26 38 26 42 0 11 99 207 111 220 5 5
9 21 9 35 0 15 10 36 24 49 13 12 40 60 61 106 20 46 44 87 53 92 10 4 296 10
637 13 596 5 620 6 623 24 2 10 -2 22 -10 27 -7 5 -298 9 -645 9 l-633 0 -30
-42z m-1899 -4603 c6 -3164 1 -4605 -14 -4605 -11 0 -15 283 -21 1653 -6 1555
0 4785 10 4816 3 9 8 11 13 5 5 -5 10 -846 12 -1869z m517 1863 c8 -8 12 -48
12 -115 0 -96 1 -103 20 -103 19 0 20 7 20 109 0 90 3 110 16 115 9 3 107 6
220 6 203 0 204 0 208 -22 9 -43 14 -3901 8 -5178 l-7 -1275 -222 -3 -222 -2
-3 112 c-2 93 -6 113 -18 113 -12 0 -16 -21 -20 -110 l-5 -110 -230 0 -230 0
-3 3225 c-1 1774 0 3231 3 3238 6 17 435 18 453 0z m616 -14 c8 -21 8 -6078
-1 -6287 -4 -119 -10 -167 -18 -167 -8 0 -14 46 -18 158 -9 198 -9 6275 -1
6296 3 9 12 16 19 16 7 0 16 -7 19 -16z"/>
<path d="M32197 22254 c-4 -4 -7 -97 -7 -206 0 -192 1 -198 20 -198 20 0 20 5
18 202 -3 190 -8 225 -31 202z"/>
<path d="M32195 21748 c-3 -7 -4 -99 -3 -203 3 -172 5 -190 21 -193 16 -3 17
10 15 199 -2 151 -6 203 -15 207 -7 2 -15 -2 -18 -10z"/>
<path d="M32194 21247 c-2 -7 -3 -98 -2 -202 3 -161 5 -190 18 -190 13 0 15
30 18 203 2 177 0 202 -13 202 -9 0 -18 -6 -21 -13z"/>
<path d="M32195 20758 c-3 -7 -4 -97 -3 -198 3 -168 5 -185 21 -188 16 -3 17
10 15 194 -2 147 -6 198 -15 202 -7 2 -15 -2 -18 -10z"/>
<path d="M32173 19736 l-33 -32 0 -181 c0 -100 -3 -188 -6 -197 -5 -13 -24
-16 -99 -16 -52 0 -96 -4 -99 -9 -8 -12 41 -68 156 -180 l97 -93 3 -67 c2 -51
6 -66 18 -66 12 0 16 16 18 75 l3 75 114 116 c63 64 115 123 115 132 0 14 -15
17 -92 19 l-93 3 -3 195 c-2 174 -4 197 -20 210 -10 8 -21 23 -25 33 -9 23
-16 20 -54 -17z"/>
<path d="M32197 18273 c-4 -3 -7 -91 -7 -195 0 -181 1 -188 20 -188 19 0 20 7
20 195 0 156 -3 195 -13 195 -8 0 -17 -3 -20 -7z"/>
<path d="M32195 17788 c-3 -7 -4 -99 -3 -203 3 -161 5 -190 18 -190 13 0 15
29 15 199 0 151 -3 200 -12 203 -7 3 -15 -1 -18 -9z"/>
<path d="M32195 17288 c-3 -7 -4 -99 -3 -203 3 -161 5 -190 18 -190 13 0 15
29 15 199 0 151 -3 200 -12 203 -7 3 -15 -1 -18 -9z"/>
<path d="M32195 16798 c-3 -7 -4 -101 -3 -208 3 -165 5 -195 18 -195 13 0 15
29 15 204 0 155 -3 205 -12 208 -7 3 -15 -1 -18 -9z"/>
<path d="M8615 24669 c-4 -5 -6 -139 -5 -297 1 -158 2 -311 1 -339 l-1 -53
-70 -46 c-89 -60 -110 -97 -110 -197 0 -98 27 -139 140 -211 l35 -22 5 -346
c3 -191 8 -350 12 -354 4 -4 582 -6 1284 -5 l1277 2 101 67 c55 37 121 78 146
91 25 13 56 32 70 43 14 10 70 48 125 83 148 94 135 69 135 260 l0 165 33 20
c17 11 38 20 45 20 8 0 26 9 41 19 l27 19 43 -29 c24 -16 47 -29 51 -29 14 0
30 -53 30 -100 0 -27 5 -52 10 -55 14 -9 19 220 4 234 -2 3 -11 -5 -20 -17
-19 -28 -29 -28 -59 3 -18 17 -25 35 -25 63 0 36 -2 39 -24 35 -20 -4 -25 0
-30 24 -7 32 7 83 23 83 5 0 13 -6 18 -12 5 -8 10 9 13 42 4 49 8 56 34 69 23
11 33 11 49 2 10 -7 21 -10 24 -8 6 7 6 87 0 94 -4 3 -20 -5 -36 -18 -78 -61
-90 -69 -109 -69 -12 0 -24 5 -28 11 -3 6 -31 22 -60 35 l-54 24 -1 172 0 173
-62 39 c-122 78 -165 105 -347 219 -58 36 -110 70 -116 74 -43 33 -38 33
-1333 33 -888 0 -1282 -3 -1286 -11z m2536 -242 c4 -120 4 -527 0 -905 l-6
-687 -1237 -3 c-1227 -2 -1238 -2 -1258 18 -20 20 -20 33 -20 893 0 479 4 877
8 883 4 7 16 14 27 17 11 2 574 4 1250 3 l1230 -1 6 -218z m166 122 c37 -26
92 -59 121 -74 29 -15 54 -31 57 -35 3 -5 49 -36 103 -69 61 -37 103 -71 110
-86 19 -42 16 -1049 -3 -1085 -13 -25 -63 -64 -144 -110 -14 -9 -58 -37 -97
-63 -39 -26 -75 -47 -80 -47 -5 -1 -25 -14 -44 -30 -19 -17 -38 -30 -42 -30
-5 0 -27 -12 -49 -27 -73 -48 -69 -96 -69 851 0 769 1 841 17 858 14 15 19 16
34 6 9 -7 48 -34 86 -59z m502 -648 c38 -20 38 -21 44 -93 3 -40 4 -102 2
-138 -4 -73 -25 -100 -76 -100 l-29 0 0 168 c0 150 3 182 17 182 2 0 21 -9 42
-19z m-3221 -3 c8 -8 12 -58 12 -160 l0 -148 -26 -6 c-47 -12 -124 85 -124
156 0 52 38 117 90 153 29 20 32 21 48 5z"/>
<path d="M8821 24466 c-8 -9 -9 -46 -2 -127 l8 -114 2 96 c2 131 14 141 101
81 14 -9 41 -26 59 -37 18 -11 51 -33 72 -50 51 -40 87 -67 114 -85 23 -16
102 -72 195 -140 30 -22 79 -57 109 -78 30 -20 68 -47 85 -60 42 -30 95 -68
126 -89 14 -9 36 -27 50 -39 14 -12 41 -31 60 -41 52 -29 51 -61 -2 -95 -24
-15 -59 -39 -78 -52 -19 -14 -73 -52 -120 -86 -47 -33 -130 -92 -185 -130 -55
-39 -118 -84 -140 -101 -48 -36 -140 -100 -167 -115 -11 -7 -37 -28 -57 -48
-20 -20 -42 -36 -48 -36 -6 0 -16 -7 -23 -15 -20 -24 -116 -69 -134 -62 -14 6
-16 56 -18 504 -1 300 -4 462 -9 408 -11 -142 -11 -933 1 -940 13 -8 2138 -8
2151 0 15 10 12 1438 -3 1453 -19 19 -2131 17 -2147 -2z m1983 -35 c6 -9 -51
-55 -191 -154 -47 -33 -195 -141 -300 -219 -51 -37 -95 -68 -98 -68 -4 0 -39
-25 -80 -55 -40 -30 -76 -55 -79 -55 -4 0 -21 -13 -39 -30 -18 -16 -36 -30
-41 -30 -4 0 -21 -11 -38 -25 -36 -30 -52 -31 -86 -5 -73 56 -289 213 -307
222 -11 6 -69 48 -130 93 -60 45 -168 123 -238 173 -71 51 -134 97 -140 103
-7 5 -21 16 -31 23 -11 7 -16 18 -12 24 9 15 1802 17 1810 3z m134 -3 c9 -9
12 -175 12 -684 0 -370 -3 -679 -6 -688 -3 -9 -12 -16 -20 -16 -14 0 -99 47
-130 73 -11 9 -34 28 -53 44 -19 15 -65 48 -101 73 -37 25 -91 63 -121 86 -30
22 -85 62 -124 89 -38 27 -84 60 -101 74 -18 14 -65 47 -105 74 -41 26 -101
67 -134 92 -33 25 -70 51 -83 57 -30 15 -26 58 6 74 12 6 34 21 47 34 13 13
33 28 44 34 27 16 171 115 203 140 38 30 77 59 103 76 63 42 85 58 142 102 34
27 65 48 69 48 3 0 40 26 81 58 79 60 244 172 253 172 3 0 11 -5 18 -12z
m-1014 -737 c19 -16 139 -101 245 -171 21 -14 45 -32 53 -40 8 -8 41 -31 73
-50 32 -19 67 -45 78 -57 11 -13 26 -23 33 -23 6 0 17 -7 24 -15 6 -8 35 -30
63 -50 29 -19 72 -51 97 -70 58 -44 153 -113 198 -144 25 -16 31 -25 22 -31
-16 -10 -1455 -13 -1667 -4 -120 5 -153 10 -153 20 0 8 3 14 8 14 9 0 109 71
137 98 11 10 38 30 60 44 22 14 46 33 54 42 7 9 17 16 22 16 11 0 131 91 142
108 4 6 13 12 18 12 6 0 31 15 56 33 25 17 56 39 68 47 43 28 247 175 288 207
49 38 54 39 81 14z"/>
<path d="M12040 24665 c-10 -12 -13 -52 -11 -148 3 -176 20 -203 21 -32 0 92
5 135 14 148 12 16 50 17 532 17 285 0 773 3 1084 8 l565 7 -345 6 c-190 3
-683 7 -1096 8 -666 1 -753 -1 -764 -14z"/>
<path d="M14560 24670 c-8 -5 -10 -10 -4 -10 33 0 35 -48 34 -714 -1 -820 -8
-1082 -27 -1102 -12 -12 -200 -14 -1247 -14 -1182 0 -1234 1 -1249 18 -15 16
-17 50 -17 265 0 152 -4 247 -10 247 -15 0 -18 -510 -2 -537 l12 -23 1289 0
1288 0 36 28 c74 55 123 90 147 102 22 12 159 99 310 199 l55 36 0 162 c0 184
-4 174 89 222 65 35 79 37 95 17 7 -8 23 -17 38 -21 14 -3 33 -16 43 -27 22
-28 40 -16 40 27 0 38 -14 52 -35 35 -10 -9 -21 -8 -43 4 l-29 15 0 141 c0
156 2 161 71 164 26 1 32 6 34 30 5 42 -13 54 -41 28 -13 -12 -28 -22 -34 -22
-5 0 -18 -9 -28 -20 -23 -26 -36 -25 -93 5 -26 14 -52 25 -59 25 -6 0 -21 12
-33 27 -21 26 -22 37 -19 182 3 150 3 153 -20 172 -13 10 -29 19 -36 19 -7 0
-15 4 -17 8 -1 5 -21 21 -43 36 -22 14 -58 38 -80 53 -22 15 -56 37 -76 48
-49 27 -128 79 -161 104 -14 12 -32 21 -38 21 -7 0 -28 14 -47 30 -34 31 -66
37 -93 20z m126 -75 c4 -8 14 -15 24 -15 9 0 25 -9 35 -20 9 -10 48 -38 86
-60 37 -23 73 -48 80 -56 7 -9 28 -22 48 -30 20 -8 45 -23 56 -34 11 -10 39
-28 62 -40 23 -12 48 -28 55 -37 10 -13 13 -123 11 -562 l-2 -546 -25 -20
c-13 -11 -53 -38 -87 -59 -96 -59 -241 -153 -269 -175 -46 -34 -102 -62 -116
-57 -12 5 -14 146 -14 859 0 470 3 857 7 860 12 13 44 7 49 -8z m572 -695 l34
-21 -8 -67 c-7 -66 -6 -67 13 -49 34 30 53 22 53 -23 0 -43 -16 -52 -44 -25
-25 25 -29 17 -21 -41 6 -50 4 -59 -16 -80 -30 -33 -84 -33 -93 -1 -8 29 -8
291 0 311 8 22 42 20 82 -4z"/>
<path d="M15805 24670 c-267 -5 -255 -5 270 -12 303 -5 857 -8 1231 -8 613 0
682 -2 688 -16 3 -9 6 -413 6 -898 0 -673 -3 -885 -12 -894 -9 -9 -299 -12
-1243 -12 -1214 0 -1232 0 -1250 20 -10 11 -22 17 -26 14 -15 -9 -10 -52 7
-58 9 -3 593 -6 1299 -6 1152 0 1284 2 1296 16 14 18 145 104 158 104 4 0 16
9 26 20 10 11 21 20 25 20 4 0 48 27 98 60 51 33 94 60 97 60 2 0 32 21 65 46
l60 45 0 163 c0 145 2 165 18 179 10 10 25 17 33 17 8 0 29 9 47 20 l33 20 57
-30 c31 -17 63 -39 70 -48 9 -12 12 -97 12 -343 0 -269 2 -329 14 -338 11 -9
268 -12 1043 -10 l1028 2 80 39 c44 22 89 44 100 48 35 13 99 43 398 184 50
24 113 53 139 64 29 13 49 30 54 44 8 26 7 1115 -1 1128 -5 8 -234 122 -340
170 -22 10 -97 46 -167 79 -70 34 -132 61 -137 61 -5 0 -35 14 -66 30 l-57 30
-1032 0 c-789 0 -1035 -3 -1044 -12 -9 -9 -12 -98 -12 -338 0 -179 -4 -330 -8
-336 -6 -11 -38 -32 -102 -67 -23 -13 -31 -12 -90 17 -60 29 -66 34 -72 71 -5
22 -5 99 -2 171 6 139 6 138 -46 169 -81 46 -130 77 -140 90 -7 8 -16 15 -21
15 -5 0 -50 27 -100 60 -50 33 -94 60 -98 60 -4 0 -16 9 -26 20 -10 11 -23 20
-30 20 -6 0 -29 13 -51 30 l-39 29 -980 -2 c-539 -1 -1106 -4 -1260 -7z m4356
-30 c17 -9 19 -22 19 -100 0 -140 -37 -203 -156 -261 l-69 -34 -260 -1 c-246
-1 -263 -3 -309 -23 -56 -26 -129 -90 -163 -144 -24 -38 -24 -39 -24 -330 -1
-330 -3 -316 80 -402 93 -96 161 -112 456 -109 121 1 237 -2 257 -7 54 -14
134 -81 162 -138 21 -39 25 -65 27 -143 1 -52 -1 -100 -5 -106 -5 -9 -160 -12
-621 -12 -589 0 -615 1 -624 19 -14 25 -14 1757 0 1782 9 18 35 19 610 19 395
0 607 -4 620 -10z m747 1 c17 -10 23 -1784 6 -1801 -7 -7 -123 -9 -340 -8
l-329 3 -6 95 c-5 81 -11 105 -39 160 -42 84 -82 125 -150 158 -55 27 -55 27
-325 30 -262 3 -272 4 -320 27 -76 36 -138 101 -166 172 -17 41 -21 479 -6
524 19 51 83 135 125 161 72 45 94 48 375 48 171 0 267 4 267 10 0 6 8 10 18
10 50 0 137 85 185 179 33 65 37 80 37 151 0 44 4 80 10 82 23 7 646 7 658 -1z
m125 -41 c14 -11 28 -20 31 -20 8 0 69 -28 221 -100 66 -31 149 -70 185 -86
36 -16 97 -44 135 -64 l70 -35 3 -547 2 -547 -27 -19 c-16 -10 -66 -37 -113
-59 -47 -23 -145 -69 -217 -104 -73 -35 -133 -66 -133 -69 0 -3 -21 -12 -47
-19 -27 -8 -72 -27 -102 -43 -29 -16 -58 -27 -63 -26 -12 4 -17 1727 -5 1746
12 17 31 15 60 -8z m-2924 -11 c22 -11 45 -27 52 -35 6 -8 15 -14 19 -14 10 0
84 -46 240 -148 69 -45 130 -82 136 -82 7 0 14 -7 17 -15 4 -8 6 -257 6 -554
l0 -539 -55 -41 c-30 -22 -57 -41 -60 -41 -3 0 -17 -8 -32 -19 -65 -45 -264
-171 -317 -201 -71 -40 -65 -112 -65 845 0 552 4 865 10 865 5 0 27 -9 49 -21z
m759 -848 c3 -203 1 -208 -62 -171 -36 22 -44 37 -28 56 5 5 15 35 22 67 13
57 10 86 -20 163 -7 17 -3 27 13 42 24 21 47 32 62 28 6 -2 11 -74 13 -185z
m-185 151 c24 -25 26 -33 18 -55 -9 -23 -8 -75 2 -217 2 -20 -6 -29 -36 -43
-63 -31 -67 -21 -67 168 0 121 3 165 13 168 27 11 44 6 70 -21z"/>
<path d="M35605 24569 c-19 -17 -35 -38 -35 -47 0 -18 -18 -78 -31 -104 -5
-10 -9 -28 -9 -40 0 -12 -8 -31 -18 -42 -11 -12 -29 -50 -41 -86 -34 -97 -36
-101 -59 -150 -12 -25 -22 -53 -22 -62 0 -9 -4 -20 -10 -23 -16 -10 -12 -52 6
-59 45 -17 104 7 104 42 0 7 4 20 9 30 5 9 17 34 27 55 24 50 33 54 130 62 87
8 144 -9 144 -41 0 -36 34 -116 58 -134 39 -31 102 -24 102 11 0 11 -4 27 -9
37 -16 32 -30 67 -46 117 -9 28 -27 67 -41 87 -13 21 -24 46 -24 56 0 10 -4
22 -8 28 -5 5 -15 29 -23 54 -7 25 -24 66 -36 92 -12 25 -25 58 -29 72 -8 35
-52 76 -80 76 -13 0 -39 -14 -59 -31z m79 -181 c9 -17 16 -39 16 -49 0 -10 5
-21 10 -24 17 -10 12 -72 -6 -79 -42 -16 -114 -1 -114 24 0 28 62 160 75 160
2 0 11 -14 19 -32z"/>
<path d="M38247 24586 c-27 -21 -87 -156 -87 -198 0 -8 -9 -23 -19 -32 -11
-10 -31 -56 -46 -104 -15 -48 -31 -95 -36 -104 -5 -10 -13 -27 -19 -38 -5 -11
-14 -29 -20 -40 -17 -33 -13 -110 6 -117 44 -17 93 34 109 111 3 16 19 42 36
58 l30 30 97 -7 c54 -4 100 -12 104 -19 5 -6 15 -37 24 -69 23 -81 46 -107 94
-107 61 0 69 19 41 98 -28 82 -50 132 -65 152 -7 8 -22 47 -35 85 -12 39 -40
104 -60 145 -21 41 -41 87 -44 101 -15 59 -69 86 -110 55z m59 -173 c7 -10 14
-26 14 -36 0 -9 4 -25 9 -35 4 -9 13 -33 20 -52 14 -45 -3 -60 -68 -60 -70 0
-78 10 -57 62 10 24 22 51 27 60 5 10 9 28 9 41 0 40 23 50 46 20z"/>
<path d="M38639 24583 c-22 -25 -34 -551 -14 -598 l14 -35 123 -2 c249 -5 248
-5 269 21 24 29 24 33 0 62 -18 23 -27 24 -158 29 l-138 5 -3 249 c-2 215 -5
252 -19 268 -20 23 -56 23 -74 1z"/>
<path d="M36017 24573 c-15 -18 -17 -48 -17 -305 0 -263 1 -286 18 -301 22
-20 52 -22 75 -4 14 10 17 34 19 137 l3 125 54 3 c82 5 127 -24 186 -119 80
-128 97 -149 130 -155 43 -8 75 3 75 25 0 18 -131 224 -150 236 -17 11 -11 20
33 52 105 73 104 229 -1 295 -34 21 -50 23 -222 26 -173 4 -186 2 -203 -15z
m372 -102 c39 -37 42 -81 6 -117 -24 -24 -28 -25 -152 -22 l-128 3 -3 69 c-2
38 -1 75 2 83 4 10 34 13 125 13 117 0 119 0 150 -29z"/>
<path d="M36641 24569 c-21 -23 -21 -28 -19 -308 l3 -286 25 -12 c15 -7 36
-10 48 -6 21 5 22 10 22 127 0 82 4 126 12 134 7 7 36 12 66 12 84 0 133 -43
226 -197 43 -72 41 -70 92 -78 27 -4 45 -2 59 8 19 15 19 15 -6 53 -15 22 -37
56 -49 78 -13 21 -40 58 -62 83 -21 24 -38 48 -38 52 0 4 19 21 43 38 59 41
81 90 74 165 -5 61 -43 128 -72 128 -7 0 -15 6 -17 12 -4 10 -55 14 -195 17
-188 3 -191 3 -212 -20z m366 -91 c31 -29 32 -92 1 -125 -20 -22 -28 -23 -155
-23 l-133 0 0 78 c0 43 3 82 7 85 3 4 63 7 132 7 114 0 127 -2 148 -22z"/>
<path d="M37288 24579 c-17 -9 -18 -34 -18 -302 0 -161 4 -298 9 -306 5 -7 21
-13 37 -13 53 0 55 10 52 324 -2 157 -5 289 -8 291 -12 12 -56 16 -72 6z"/>
<path d="M37437 24575 c-14 -13 -13 -19 3 -52 11 -21 28 -65 40 -98 12 -33 34
-87 49 -120 15 -33 33 -78 40 -100 7 -22 21 -58 31 -80 11 -22 25 -62 32 -89
13 -50 46 -86 79 -86 36 0 86 57 104 118 9 31 21 65 26 74 5 10 9 24 9 33 0 8
8 29 18 47 24 43 82 189 82 206 0 7 7 24 16 37 23 35 35 97 22 112 -24 30 -98
1 -98 -39 0 -11 -8 -32 -18 -46 -10 -15 -26 -52 -35 -82 -22 -78 -54 -159 -69
-177 -17 -20 -38 -82 -38 -113 l-1 -25 -24 28 c-14 15 -25 37 -25 48 0 10 -4
27 -9 37 -5 9 -15 37 -21 62 -11 38 -50 132 -81 192 -5 10 -9 31 -9 47 0 56
-87 103 -123 66z"/>
<path d="M12241 24461 l-21 -21 0 -702 c0 -387 4 -709 9 -716 12 -19 2156 -19
2179 0 13 11 14 95 9 717 -5 660 -6 706 -23 718 -10 7 -32 13 -48 13 -17 0
-493 3 -1057 6 l-1026 7 -22 -22z m161 -78 c1 -5 32 -28 68 -52 36 -24 76 -53
90 -65 14 -12 57 -43 95 -70 98 -66 137 -94 161 -117 11 -10 24 -19 28 -19 4
0 24 -13 44 -28 20 -16 67 -51 104 -78 37 -27 87 -64 111 -81 24 -18 48 -33
54 -33 5 0 19 -11 31 -25 13 -14 34 -30 47 -35 19 -7 25 -17 25 -38 0 -24 -13
-37 -91 -92 -128 -92 -146 -105 -218 -158 -35 -26 -74 -54 -86 -62 -76 -51
-121 -84 -130 -94 -5 -6 -43 -33 -84 -61 -40 -27 -83 -57 -95 -65 -11 -8 -48
-35 -81 -60 -128 -97 -168 -118 -190 -100 -13 11 -15 93 -15 691 0 771 -6 718
81 673 26 -13 49 -27 51 -31z m1822 49 c3 -5 -7 -20 -22 -33 -37 -33 -110 -89
-116 -89 -4 0 -127 -90 -218 -160 -14 -11 -30 -20 -35 -20 -5 0 -20 -12 -34
-26 -13 -14 -37 -33 -52 -41 -16 -8 -55 -35 -89 -61 -33 -26 -69 -52 -79 -58
-11 -6 -33 -23 -48 -38 -15 -14 -31 -26 -37 -26 -5 0 -32 -18 -61 -39 -99 -76
-97 -75 -137 -56 -20 10 -36 21 -36 26 0 5 -5 9 -10 9 -12 0 -42 20 -135 91
-33 25 -94 69 -135 98 -41 28 -95 67 -120 87 -25 19 -58 42 -73 52 -28 16
-165 118 -199 147 -9 7 -29 22 -45 32 -66 42 -132 96 -127 104 7 12 1801 12
1808 1z m151 -14 c14 -20 15 -93 10 -678 -4 -360 -8 -665 -10 -676 -10 -46
-27 -39 -185 77 -30 22 -73 52 -95 67 -22 15 -74 52 -115 82 -99 73 -139 100
-148 100 -4 0 -27 18 -52 40 -24 22 -50 40 -57 40 -6 0 -18 8 -25 18 -7 11
-31 31 -53 45 -22 15 -54 37 -72 49 -17 13 -60 43 -95 69 -35 25 -71 48 -81
52 -21 8 -22 40 -1 61 8 9 37 30 62 48 26 17 56 39 67 49 11 9 34 25 51 36 18
10 63 41 100 70 38 28 85 63 104 78 55 41 180 129 201 141 11 6 30 21 42 32
22 21 60 49 132 99 22 15 42 31 45 34 10 13 135 89 147 89 6 0 19 -10 28 -22z
m-998 -740 c21 -12 43 -28 48 -34 6 -7 28 -24 50 -38 22 -15 56 -39 77 -54 20
-15 74 -55 120 -89 45 -35 98 -73 116 -85 18 -13 48 -34 67 -48 19 -14 57 -41
85 -60 28 -19 86 -61 128 -93 42 -32 96 -70 120 -85 44 -28 53 -46 27 -56 -20
-7 -1769 -7 -1790 0 -8 3 -15 9 -15 13 0 3 50 42 110 86 61 44 140 101 176
128 36 26 67 47 71 47 3 0 27 18 53 40 26 22 51 40 55 40 4 0 22 12 41 28 18
15 50 39 71 55 21 15 61 45 90 67 29 22 55 40 58 40 4 0 77 52 116 84 51 42
74 44 126 14z"/>
<path d="M15713 24472 c-17 -2 -36 -9 -42 -16 -13 -16 -16 -1425 -3 -1438 9
-9 2140 -13 2149 -5 2 3 4 327 4 722 0 562 -3 721 -13 732 -11 14 -131 15
-1038 12 -564 -2 -1039 -5 -1057 -7z m87 -73 c30 -23 78 -57 105 -76 28 -18
68 -47 90 -64 22 -16 70 -51 106 -77 37 -26 129 -92 205 -147 146 -105 176
-127 209 -147 11 -7 36 -26 56 -43 19 -16 56 -45 82 -62 26 -18 47 -37 47 -42
0 -18 -126 -112 -439 -329 -74 -51 -110 -77 -153 -109 -20 -15 -80 -59 -132
-96 -53 -38 -98 -72 -101 -77 -14 -23 -129 -91 -148 -88 l-22 3 -3 684 c-2
688 -1 711 32 711 6 0 36 -19 66 -41z m1850 27 c0 -17 -28 -40 -152 -126 -51
-35 -155 -111 -231 -167 -76 -57 -142 -103 -146 -103 -4 0 -18 -11 -31 -25
-13 -14 -29 -25 -35 -25 -7 0 -20 -10 -31 -21 -22 -25 -129 -99 -142 -99 -5 0
-16 -7 -23 -16 -43 -53 -133 -80 -159 -49 -6 8 -35 30 -63 49 -29 20 -77 54
-107 76 -58 42 -118 85 -155 110 -62 42 -254 180 -299 216 -28 22 -80 60 -116
84 -83 56 -110 80 -110 97 0 11 159 13 900 13 768 0 900 -2 900 -14z m144 -8
c8 -30 8 -1342 0 -1362 -9 -24 -37 -19 -79 14 -21 17 -43 30 -50 30 -6 0 -22
11 -34 24 -12 13 -48 41 -79 62 -31 22 -93 66 -137 99 -44 33 -112 82 -151
110 -436 305 -463 325 -464 348 0 9 4 17 9 17 8 0 41 25 127 94 18 15 35 26
39 26 4 0 24 14 45 30 21 17 43 30 48 30 6 0 19 11 30 25 11 14 24 25 29 25 7
0 74 46 138 95 33 25 117 86 200 145 42 30 85 62 95 70 10 8 31 23 47 32 15
10 57 38 92 63 72 51 86 54 95 23z m-960 -765 c36 -27 117 -84 178 -128 62
-44 119 -85 126 -92 7 -7 17 -13 22 -13 4 0 26 -15 48 -32 22 -18 63 -49 92
-68 28 -19 66 -46 83 -60 18 -14 39 -29 49 -35 9 -5 44 -31 77 -57 34 -27 65
-48 69 -48 16 -1 83 -70 77 -79 -9 -15 -1801 -15 -1810 0 -7 10 61 78 79 79 5
0 25 15 46 33 20 17 61 48 89 67 29 19 67 46 84 60 18 14 40 30 49 35 9 6 43
30 76 55 59 44 117 85 292 206 48 33 105 75 126 92 21 18 48 32 60 32 12 0 51
-21 88 -47z"/>
<path d="M30497 22913 c-4 -3 -7 -38 -7 -77 0 -93 -6 -102 -54 -79 -42 20 -61
13 -86 -30 -13 -23 -13 -28 3 -45 9 -10 17 -26 17 -35 0 -14 -15 -17 -92 -19
-86 -3 -93 -5 -96 -24 -4 -28 27 -34 164 -34 94 0 105 -2 124 -22 18 -19 20
-30 14 -63 -4 -22 -7 -78 -5 -125 1 -47 2 -1415 2 -3040 1 -2457 -2 -3092 -10
-3138 -1 -2 -16 6 -35 17 -38 24 -53 21 -80 -16 -18 -24 -18 -27 -2 -53 27
-46 22 -50 -60 -50 -102 0 -141 -23 -96 -56 12 -9 53 -13 139 -14 156 0 153 3
153 -162 0 -107 2 -118 18 -118 33 0 42 21 42 102 l0 79 29 -22 c37 -27 60
-22 85 20 15 27 17 37 8 52 -31 48 -28 49 216 49 419 0 572 14 537 48 -6 6
-180 13 -432 17 -231 4 -426 11 -432 14 -10 7 -12 782 -11 4593 l0 1786 40
-21 41 -22 24 28 c30 34 31 47 5 80 -14 18 -17 28 -9 33 6 3 181 9 388 12 239
3 378 8 383 15 20 32 -3 34 -420 40 -230 3 -425 9 -435 13 -15 5 -17 22 -17
128 0 82 -4 126 -12 134 -13 13 -31 16 -41 5z"/>
<path d="M6926 22310 c-141 -5 -243 -13 -250 -20 -13 -13 -789 -12 8571 -10
5976 1 7947 -1 7963 -10 26 -14 38 -5 24 17 -8 13 -33 16 -149 18 -606 7
-15972 12 -16159 5z"/>
<path d="M20377 22113 c-4 -3 -7 -64 -7 -133 0 -101 3 -130 15 -140 8 -7 12
-16 9 -21 -6 -11 -744 -12 -760 -1 -6 4 -23 30 -38 57 -39 70 -73 104 -119
116 -25 6 -41 18 -44 30 -7 26 -33 24 -60 -5 -13 -13 -36 -26 -51 -29 -37 -8
-122 -89 -122 -118 0 -11 -13 -34 -30 -49 -16 -15 -30 -33 -30 -38 0 -6 14
-20 30 -32 18 -13 30 -30 30 -44 0 -30 84 -109 134 -126 23 -7 41 -21 46 -36
12 -30 42 -31 55 -2 6 13 32 34 59 49 45 23 96 72 96 92 0 5 9 21 20 36 l19
28 420 7 c230 4 462 4 515 0 89 -6 95 -8 85 -26 -13 -24 -4 -38 27 -38 24 0
24 0 24 -104 0 -83 3 -108 16 -121 30 -30 39 -12 41 86 4 133 6 139 48 139 28
0 35 4 35 19 0 11 -5 23 -11 27 -20 12 13 24 66 24 69 0 88 -14 41 -30 -91
-30 -116 -177 -42 -255 30 -32 38 -35 90 -35 50 0 60 4 96 36 44 40 65 97 55
145 -8 34 -71 103 -104 114 -50 16 7 25 159 25 151 0 216 -11 157 -25 -15 -4
-38 -21 -52 -37 -22 -26 -25 -39 -25 -112 0 -80 1 -83 33 -114 28 -27 41 -32
80 -32 38 0 53 6 79 29 26 24 30 32 21 42 -10 10 -20 9 -48 -4 -80 -38 -125
-7 -125 87 0 80 67 124 124 81 11 -8 30 -15 43 -15 21 0 23 -4 23 -58 0 -100
48 -165 121 -164 33 1 49 7 76 34 l34 33 -3 110 c-3 102 -4 110 -23 110 -18 0
-20 -8 -25 -104 -5 -99 -6 -105 -32 -124 -25 -19 -28 -19 -52 -4 -31 21 -47
74 -40 135 7 53 -8 102 -30 102 -8 0 -18 -9 -21 -20 -9 -27 -27 -25 -55 5 -13
14 -31 25 -39 26 -9 0 -5 4 9 10 24 10 337 11 372 2 14 -3 16 -8 8 -24 -14
-24 -9 -264 5 -264 6 0 12 14 13 30 7 61 38 72 66 23 28 -49 56 -77 72 -71 19
7 17 26 -6 56 -27 34 -25 66 6 101 33 37 44 23 44 -56 0 -31 5 -69 12 -83 10
-22 17 -25 68 -25 76 0 110 25 110 80 0 22 -5 51 -12 65 -8 18 -8 31 0 49 14
32 -2 68 -43 93 l-30 18 97 5 c76 4 101 9 115 23 16 15 16 19 3 27 -16 10 -71
11 -591 10 -179 0 -328 2 -331 6 -4 3 11 24 33 46 38 39 39 42 39 113 0 68 -2
75 -33 109 -29 31 -39 36 -80 36 -44 0 -48 -2 -67 -40 -14 -27 -20 -59 -20
-104 0 -74 13 -109 47 -131 36 -24 19 -35 -51 -35 -70 0 -85 7 -57 26 21 15
34 87 22 130 -6 24 -15 31 -49 38 -44 9 -54 22 -45 55 4 14 13 21 30 21 29 0
63 17 63 30 0 6 -32 10 -70 10 -66 0 -71 -1 -80 -26 -15 -39 -12 -110 5 -124
12 -10 21 -10 45 0 28 12 33 10 55 -10 32 -30 32 -57 0 -72 -20 -9 -34 -9 -60
1 -56 20 -78 -13 -30 -45 34 -22 23 -34 -30 -34 -43 0 -44 1 -39 28 5 23 1 30
-20 40 -25 11 -26 14 -26 107 0 135 -16 159 -75 110 l-30 -25 23 -19 c19 -17
22 -29 22 -90 0 -61 -3 -72 -21 -81 -14 -8 -19 -19 -17 -38 l3 -27 -85 0 -85
0 3 27 c3 28 -2 31 -63 40 -18 3 -20 13 -25 105 -4 79 -9 106 -22 120 -17 16
-18 10 -18 -140 l0 -157 -29 0 c-34 0 -44 10 -31 30 13 21 -8 40 -44 40 -48 0
-70 19 -57 52 7 20 18 27 42 30 41 4 49 25 12 33 -44 10 -58 21 -55 46 3 28
18 39 53 39 27 0 54 22 42 33 -8 9 -138 9 -146 0z m1011 -49 c19 -13 22 -24
22 -89 0 -63 -3 -76 -19 -85 -32 -17 -50 -12 -66 20 -25 48 -19 99 18 158 11
16 18 15 45 -4z m-329 -425 l24 -46 -18 -45 c-15 -35 -27 -48 -52 -57 -29 -11
-38 -9 -73 10 -39 22 -40 24 -40 80 0 79 26 110 90 107 42 -3 46 -6 69 -49z"/>
<path d="M21673 22106 c-6 -8 -18 -37 -27 -66 -8 -28 -25 -67 -37 -86 -43 -71
-44 -139 0 -113 11 8 21 17 21 21 0 5 9 17 20 28 31 31 74 26 115 -16 26 -26
41 -33 56 -29 11 4 26 2 33 -5 22 -17 46 15 46 59 0 44 12 58 55 63 34 3 42
31 10 36 -57 8 -65 13 -65 35 0 30 18 47 51 47 27 0 54 21 42 33 -11 12 -128
8 -141 -5 -8 -8 -12 -48 -12 -115 0 -105 -10 -129 -32 -75 -6 15 -19 45 -29
67 -10 22 -27 61 -38 88 -22 48 -44 60 -68 33z"/>
<path d="M22042 22108 c-19 -19 -16 -252 3 -268 24 -20 44 5 47 57 3 48 12 57
60 68 39 8 25 33 -20 37 -30 2 -38 7 -40 26 -5 31 15 52 47 52 26 0 51 16 51
32 0 13 -135 9 -148 -4z"/>
<path d="M28416 21594 c-3 -9 -6 -49 -6 -90 0 -56 -3 -74 -14 -74 -7 0 -19 7
-26 15 -17 20 -32 19 -64 -6 -29 -23 -33 -54 -11 -83 8 -10 12 -23 9 -27 -3
-5 -313 -9 -689 -9 l-684 0 -12 -21 c-9 -17 -8 -25 5 -38 15 -14 84 -16 739
-16 397 0 728 -4 735 -8 19 -13 18 -20217 -2 -20217 -7 0 -19 7 -26 15 -18 22
-43 19 -68 -8 -25 -27 -28 -54 -7 -81 12 -16 12 -22 2 -28 -6 -4 -316 -8 -688
-8 -729 0 -716 1 -689 -49 11 -21 13 -21 740 -21 711 0 730 0 740 -19 5 -11
10 -69 10 -130 0 -121 4 -141 29 -141 27 0 41 43 41 120 0 76 11 88 45 50 24
-27 36 -25 68 8 32 33 34 57 7 72 -11 6 -20 17 -20 25 0 11 19 15 83 17 78 3
82 4 85 27 2 13 -2 28 -10 32 -7 5 -62 9 -123 9 -60 0 -116 4 -123 8 -10 7
-12 1965 -13 10111 0 6452 3 10107 9 10113 6 6 17 1 31 -13 18 -19 26 -21 48
-13 15 5 34 21 42 36 14 24 14 28 -1 45 -36 40 -28 48 57 53 78 5 80 6 83 32
4 34 -7 37 -153 41 l-110 2 -5 130 c-3 72 -9 136 -13 143 -12 17 -44 15 -51
-4z"/>
<path d="M1422 21588 c-7 -7 -12 -43 -12 -90 0 -68 -2 -78 -18 -78 -10 0 -25
9 -35 20 -22 26 -52 25 -71 -2 -20 -28 -20 -65 -1 -85 25 -25 8 -33 -69 -33
-60 0 -76 -4 -91 -20 -34 -38 -8 -48 136 -52 102 -2 132 -6 139 -18 14 -22 13
-20207 -1 -20215 -6 -4 -21 2 -33 14 -27 26 -58 27 -79 3 -19 -21 -22 -73 -6
-89 22 -22 -3 -33 -71 -33 -78 0 -108 -17 -90 -51 10 -17 22 -19 134 -19 160
0 156 3 156 -152 0 -100 2 -117 17 -122 28 -11 43 22 43 94 0 37 3 70 6 73 4
4 20 -3 37 -15 33 -24 48 -19 81 25 l20 27 -22 23 c-12 13 -22 29 -22 35 0 9
169 12 691 14 655 3 692 4 703 21 9 15 7 21 -8 33 -17 12 -127 14 -730 14
-391 0 -721 3 -733 6 l-23 6 0 10109 c0 8580 2 10109 14 10109 7 0 19 -7 26
-15 19 -23 46 -18 74 16 l26 31 -20 33 -20 33 192 7 c106 4 414 5 685 4 455
-4 494 -3 509 13 17 16 17 18 -1 38 -18 20 -27 20 -736 20 -394 0 -724 3 -733
6 -13 5 -16 25 -16 121 0 134 -14 175 -48 141z"/>
<path d="M10015 21309 c-3564 -5 -4928 -10 -4948 -18 -16 -6 -46 -11 -68 -11
-40 0 -106 -13 -174 -35 -22 -8 -56 -16 -75 -20 -112 -21 -379 -132 -472 -197
-14 -10 -33 -18 -42 -18 -9 0 -16 -3 -16 -8 0 -4 -12 -13 -27 -20 -16 -7 -71
-44 -122 -82 -82 -61 -116 -90 -178 -150 -6 -6 -29 -28 -50 -48 -73 -71 -198
-213 -208 -237 -6 -13 -20 -34 -32 -47 -11 -13 -37 -49 -57 -80 -20 -31 -40
-59 -44 -62 -5 -3 -17 -27 -27 -53 -10 -26 -21 -50 -24 -53 -3 -3 -17 -25 -30
-50 -23 -42 -29 -55 -53 -102 -4 -10 -8 -24 -8 -32 0 -12 -14 -44 -51 -118 -5
-10 -9 -29 -9 -43 0 -14 -4 -33 -9 -43 -11 -21 -58 -213 -76 -312 -12 -63 -14
-1388 -14 -8385 0 -8688 -1 -8373 39 -8510 13 -44 28 -111 37 -163 3 -18 9
-35 14 -38 5 -3 9 -18 9 -35 0 -16 4 -37 9 -47 37 -74 51 -106 51 -118 0 -8 4
-22 9 -32 27 -51 76 -150 86 -169 5 -13 13 -23 18 -23 4 0 7 -9 7 -20 0 -10
13 -35 30 -53 17 -19 30 -39 30 -43 0 -5 20 -35 45 -66 25 -32 45 -62 45 -68
0 -12 174 -207 244 -273 75 -72 147 -131 179 -147 15 -7 27 -17 27 -21 0 -9
116 -89 129 -89 5 0 11 -4 13 -9 2 -4 64 -40 138 -79 123 -64 323 -142 364
-142 10 0 31 -8 49 -17 18 -9 57 -21 87 -26 30 -5 78 -13 105 -18 221 -43 908
-43 1130 0 28 5 68 12 90 16 22 3 60 14 85 24 25 10 72 25 105 33 103 26 278
99 337 140 14 10 31 18 36 18 11 0 100 54 180 110 230 159 587 540 591 631 1
9 7 19 14 22 8 3 25 27 39 54 14 26 35 64 47 83 11 19 26 46 32 60 6 14 15 33
20 42 5 10 9 25 9 33 0 8 4 23 8 33 42 85 52 109 52 119 0 6 5 15 11 19 12 7
99 -74 99 -93 0 -7 4 -13 9 -13 5 0 28 -25 51 -55 24 -31 60 -75 82 -98 21
-23 38 -48 38 -54 0 -7 4 -13 9 -13 5 0 26 -24 47 -52 20 -29 45 -59 55 -65 9
-7 29 -33 43 -57 15 -25 32 -49 39 -53 7 -4 24 -24 37 -43 13 -19 38 -50 55
-68 16 -18 37 -41 46 -51 14 -16 48 -18 357 -24 188 -3 479 -3 648 0 257 5
307 9 312 21 15 41 -4 42 -652 42 l-620 0 -48 53 c-27 28 -57 63 -66 77 -9 14
-54 70 -100 125 -46 55 -109 131 -140 169 -31 37 -67 79 -79 93 -13 13 -23 27
-23 31 0 4 -23 31 -50 60 -28 29 -50 56 -50 60 0 5 -13 21 -30 37 -34 33 -52
76 -39 96 5 8 9 33 9 57 0 24 8 57 17 75 11 22 20 74 26 162 5 72 11 1636 13
3507 4 3200 5 3377 22 3382 9 3 35 31 56 61 22 30 46 57 53 59 7 3 13 10 13
16 0 6 21 33 46 60 26 27 54 60 62 72 9 13 29 39 46 59 17 20 58 68 91 107
l59 72 633 0 c556 0 634 2 639 15 4 8 1 22 -6 30 -11 13 -97 15 -639 15 -712
0 -660 6 -724 -87 -31 -45 -93 -121 -142 -175 -14 -15 -25 -31 -25 -35 0 -5
-9 -15 -20 -23 -11 -8 -20 -18 -20 -22 0 -18 -106 -136 -122 -137 -17 -1 -18
150 -18 3037 0 2983 0 3038 19 3069 11 17 25 51 32 75 6 24 20 62 30 85 11 24
19 47 19 52 0 5 7 14 15 21 8 7 26 36 41 66 31 63 193 232 247 257 19 9 40 23
47 32 7 8 16 15 21 15 4 0 30 13 56 28 26 15 68 34 93 42 25 7 49 17 55 22 5
4 21 8 36 8 15 0 31 5 34 10 9 14 12271 14 12280 0 3 -5 19 -10 35 -10 16 0
32 -4 35 -10 3 -5 14 -10 24 -10 20 0 187 -84 246 -124 72 -48 209 -191 245
-256 19 -34 45 -74 58 -90 12 -15 22 -33 22 -40 0 -6 9 -39 19 -73 11 -34 31
-111 46 -172 l25 -110 0 -2381 c0 -1999 -2 -2383 -14 -2393 -7 -6 -47 -55 -87
-109 -41 -53 -89 -112 -108 -131 -18 -19 -40 -49 -47 -67 -8 -19 -20 -34 -27
-34 -6 0 -25 -19 -42 -42 -16 -23 -61 -79 -100 -124 -38 -45 -85 -101 -103
-123 l-33 -41 -855 0 c-571 0 -862 -3 -875 -10 -10 -6 -19 -20 -19 -30 0 -20
12 -20 884 -20 l883 0 52 55 c28 31 51 58 51 61 0 2 42 55 93 117 51 62 106
130 122 152 17 21 38 47 47 57 10 9 29 35 43 58 14 22 30 40 35 40 5 0 24 23
42 50 18 28 37 49 43 47 7 -3 12 -1336 16 -4063 4 -2513 9 -4080 15 -4114 6
-30 15 -65 22 -77 7 -12 12 -36 12 -53 0 -17 9 -50 20 -72 11 -23 20 -54 20
-69 0 -15 5 -31 10 -34 6 -3 10 -18 10 -32 0 -13 8 -37 18 -51 11 -15 31 -59
46 -99 15 -40 35 -82 45 -95 10 -13 29 -48 43 -78 26 -57 124 -206 165 -250
13 -14 23 -28 23 -32 0 -21 237 -257 324 -323 28 -21 55 -42 60 -46 84 -68
113 -89 122 -89 7 0 14 -3 16 -7 10 -24 263 -152 394 -202 45 -17 101 -33 125
-37 24 -4 58 -14 74 -22 17 -9 50 -19 75 -24 25 -4 70 -13 100 -19 225 -43
892 -43 1135 0 133 24 151 28 180 43 17 9 53 19 80 23 28 4 55 11 60 15 6 4
41 17 78 29 37 12 103 40 145 63 42 23 100 52 127 66 56 26 169 100 202 132
12 11 26 20 32 20 5 0 35 25 68 55 32 30 63 55 69 55 11 0 178 171 199 203 6
8 37 49 70 90 91 114 123 160 139 198 8 19 23 45 34 59 30 39 109 202 137 282
42 123 51 147 58 154 4 4 7 21 7 39 0 17 4 35 9 40 10 11 19 70 27 175 3 36 9
74 14 85 5 11 14 55 20 99 14 111 14 16458 0 16559 -6 39 -15 81 -20 92 -5 11
-11 49 -14 85 -8 105 -17 164 -27 175 -5 5 -9 22 -9 37 0 16 -4 36 -10 46 -5
9 -25 62 -45 117 -43 122 -100 244 -141 305 -17 25 -34 56 -38 68 -4 12 -22
42 -39 65 -18 23 -48 65 -66 92 -19 28 -38 52 -41 55 -4 3 -47 52 -97 110 -49
58 -108 121 -131 140 -23 19 -59 50 -81 68 -21 17 -42 32 -46 32 -4 0 -25 15
-46 33 -54 45 -100 80 -124 93 -11 6 -40 23 -65 38 -135 81 -467 216 -532 216
-11 0 -29 5 -41 12 -23 12 -61 21 -182 40 -43 6 -289 12 -630 14 -394 3 -567
7 -582 15 -17 9 -29 9 -53 -1 -25 -10 -819 -11 -4143 -5 -2262 4 -4114 8
-4117 9 -3 0 -2219 -2 -4925 -5z m14413 -73 c8 -4 39 -12 70 -17 81 -12 151
-26 192 -37 61 -18 214 -72 232 -82 10 -6 26 -10 37 -10 11 0 21 -3 23 -7 2
-5 26 -19 53 -33 80 -39 204 -111 216 -126 6 -8 15 -14 20 -14 33 0 345 -265
400 -339 15 -20 41 -49 58 -65 17 -17 31 -35 31 -41 0 -7 9 -20 21 -31 12 -10
40 -48 63 -84 24 -36 50 -71 59 -79 9 -7 17 -19 17 -25 1 -10 38 -89 67 -141
35 -63 94 -196 103 -232 24 -100 31 -127 41 -145 14 -26 22 -69 61 -338 16
-108 24 -16198 8 -16465 -13 -226 -34 -376 -66 -478 -9 -27 -24 -83 -35 -125
-11 -43 -35 -108 -54 -147 -19 -38 -41 -86 -50 -105 -8 -19 -28 -57 -44 -85
-16 -27 -30 -57 -30 -66 -1 -9 -8 -23 -17 -30 -9 -7 -35 -43 -59 -79 -23 -36
-52 -74 -64 -84 -11 -11 -21 -24 -21 -31 0 -7 -10 -20 -21 -31 -12 -10 -38
-40 -59 -65 -63 -79 -288 -274 -399 -344 -9 -6 -35 -23 -58 -38 -24 -15 -45
-27 -47 -27 -3 0 -26 -13 -53 -30 -57 -35 -270 -130 -293 -130 -9 0 -20 -4
-25 -9 -9 -8 -49 -20 -135 -41 -19 -5 -55 -14 -80 -20 -185 -48 -622 -66 -985
-42 -208 14 -379 47 -532 102 -29 11 -78 29 -107 40 -66 24 -227 105 -276 138
-19 13 -44 28 -55 33 -19 9 -40 24 -131 94 -98 75 -145 116 -229 200 -49 50
-104 109 -122 130 -71 88 -132 173 -152 213 -12 23 -26 42 -32 42 -5 0 -12 8
-16 18 -11 31 -73 156 -92 187 -11 17 -20 42 -20 57 -1 15 -5 30 -11 33 -5 3
-10 13 -10 21 0 8 -9 33 -19 57 -11 23 -25 60 -31 82 -7 22 -16 50 -21 63 -5
13 -9 34 -9 47 0 13 -9 44 -20 70 -11 26 -20 60 -20 75 0 16 -4 32 -10 35 -7
4 -10 1383 -10 4105 l0 4098 55 57 c35 36 57 51 60 43 3 -7 7 -1862 9 -4123 2
-2732 7 -4135 13 -4185 6 -41 18 -95 27 -120 8 -25 25 -79 37 -120 37 -129 49
-162 69 -191 11 -15 20 -35 20 -46 0 -10 9 -33 20 -51 11 -18 20 -39 20 -46 0
-7 6 -19 14 -25 8 -7 27 -36 41 -64 15 -29 39 -68 54 -87 30 -40 71 -100 71
-104 0 -17 302 -324 355 -359 18 -12 73 -50 124 -85 91 -62 316 -182 343 -182
8 0 18 -4 24 -9 13 -13 127 -51 152 -51 11 0 23 -4 26 -9 3 -5 20 -11 38 -14
18 -3 53 -10 78 -16 231 -57 774 -67 1115 -22 39 6 104 20 145 32 41 12 90 24
108 26 18 3 35 9 38 14 3 5 16 9 29 9 13 0 27 5 30 10 3 6 14 10 25 10 10 0
35 8 57 18 113 55 179 87 183 92 3 3 19 12 35 20 112 54 435 310 484 383 8 12
35 45 60 73 59 65 131 168 152 215 10 20 22 40 29 44 9 6 103 194 129 260 49
123 101 303 111 385 4 36 14 99 22 140 11 62 13 1456 13 8295 0 7852 -1 8225
-18 8340 -25 170 -63 316 -127 490 -11 29 -29 68 -39 85 -5 8 -23 47 -41 85
-17 39 -40 79 -49 90 -10 11 -24 35 -31 53 -7 17 -16 32 -20 32 -4 0 -13 14
-20 30 -7 17 -15 30 -19 30 -4 0 -20 21 -36 46 -16 25 -36 51 -45 57 -9 7 -31
32 -50 56 -19 25 -51 59 -70 75 -19 17 -44 40 -55 52 -37 39 -164 144 -173
144 -5 0 -17 9 -28 21 -10 12 -39 33 -64 47 -25 14 -47 29 -50 32 -8 9 -60 36
-160 85 -52 25 -111 55 -131 66 -20 10 -46 19 -57 19 -11 0 -37 7 -58 16 -62
27 -180 55 -354 84 -47 8 -2697 12 -9665 13 -7962 2 -9612 0 -9670 -12 -38 -7
-92 -17 -120 -21 -47 -8 -74 -14 -166 -38 -20 -5 -51 -17 -69 -26 -18 -9 -41
-16 -50 -16 -31 0 -215 -88 -349 -166 -161 -95 -421 -325 -500 -442 -13 -20
-42 -58 -63 -83 -21 -26 -38 -50 -38 -54 0 -5 -11 -22 -24 -40 -14 -17 -46
-72 -71 -121 -26 -49 -50 -93 -54 -99 -4 -5 -16 -32 -26 -60 -9 -27 -26 -64
-36 -81 -11 -17 -19 -43 -19 -57 0 -14 -4 -28 -9 -31 -5 -3 -11 -20 -14 -38
-10 -56 -24 -121 -40 -178 -8 -30 -20 -95 -26 -145 -8 -64 -11 -2446 -11
-8335 0 -7132 2 -8258 15 -8345 13 -93 19 -119 45 -225 6 -22 15 -58 20 -80 6
-22 14 -57 19 -77 4 -21 22 -66 40 -100 17 -34 31 -68 31 -75 0 -7 10 -29 23
-48 13 -19 36 -60 51 -90 92 -182 258 -387 442 -546 64 -54 210 -164 220 -164
3 0 25 -13 49 -30 24 -16 50 -30 59 -30 8 0 18 -5 21 -10 8 -13 102 -60 180
-89 33 -13 76 -30 95 -39 19 -8 52 -19 73 -24 20 -4 54 -12 75 -17 216 -53
275 -60 570 -67 312 -7 584 10 732 46 25 6 60 14 78 17 18 3 35 9 38 14 3 5
18 9 33 9 15 0 46 9 69 20 22 11 46 20 51 20 10 0 163 68 204 91 10 5 43 23
73 40 64 34 201 126 226 151 10 10 22 18 26 18 12 0 226 211 287 283 61 71
174 237 175 255 0 7 18 39 39 72 22 32 45 76 52 97 7 21 17 42 21 48 4 5 8 18
8 30 0 11 9 31 20 45 11 14 20 34 20 45 0 12 4 25 8 30 5 6 15 36 22 68 16 70
33 74 78 15 36 -47 40 -83 16 -130 -9 -17 -22 -51 -30 -77 -26 -88 -158 -334
-235 -441 -101 -137 -302 -360 -326 -360 -5 0 -20 -12 -34 -26 -26 -29 -194
-154 -261 -195 -24 -14 -77 -44 -118 -65 -41 -21 -77 -41 -80 -44 -5 -5 -36
-17 -199 -76 -233 -85 -472 -117 -871 -117 -377 0 -620 30 -845 104 -64 22
-75 26 -147 58 -26 12 -51 21 -56 21 -11 0 -121 58 -153 81 -15 10 -30 19 -34
19 -3 0 -26 14 -50 30 -24 17 -46 30 -50 30 -8 0 -59 36 -145 104 -97 77 -261
236 -314 304 -79 103 -146 197 -167 237 -12 22 -32 53 -45 68 -13 16 -24 34
-24 40 0 7 -18 50 -41 97 -23 47 -46 93 -51 102 -4 10 -8 27 -8 37 0 11 -4 23
-10 26 -6 3 -10 18 -10 32 0 14 -9 42 -19 62 -24 44 -52 149 -58 216 -3 28 -9
55 -13 60 -30 38 -32 695 -27 8655 4 5265 9 8053 15 8125 17 179 38 279 81
385 11 25 24 65 31 90 7 25 16 53 21 62 5 10 9 27 9 38 0 11 3 20 8 20 4 0 13
15 20 33 7 17 18 39 23 47 5 8 18 33 28 55 33 71 186 305 199 305 5 0 18 17
29 38 30 51 373 382 398 382 3 0 26 14 50 30 24 17 46 30 50 30 6 0 16 6 107
68 25 18 50 32 54 32 4 0 37 14 73 31 129 62 295 119 406 140 128 25 166 30
250 37 132 10 19297 9 19313 -2z m-33 -184 c126 -19 179 -30 220 -45 22 -8 58
-20 80 -26 41 -13 77 -27 107 -42 10 -5 26 -9 35 -9 10 0 45 -14 78 -30 33
-16 64 -30 68 -30 5 0 27 -13 50 -29 23 -15 69 -43 102 -61 104 -58 378 -299
454 -400 14 -19 34 -41 43 -48 10 -7 18 -19 18 -25 0 -7 19 -37 42 -67 23 -30
54 -80 69 -111 15 -31 35 -61 43 -69 9 -7 16 -19 16 -26 0 -8 4 -22 9 -32 5
-9 21 -47 36 -84 15 -37 33 -72 41 -79 8 -6 14 -26 14 -45 0 -18 4 -35 9 -38
9 -6 18 -45 27 -126 3 -25 10 -49 15 -54 5 -6 9 -20 9 -32 0 -13 4 -25 8 -28
5 -3 13 -56 18 -118 12 -150 12 -16486 0 -16636 -5 -62 -13 -115 -18 -118 -4
-3 -8 -15 -8 -28 0 -12 -4 -26 -9 -31 -5 -6 -11 -28 -14 -50 -3 -22 -11 -60
-17 -85 -6 -25 -14 -61 -17 -80 -3 -19 -13 -46 -23 -60 -26 -38 -60 -111 -60
-131 0 -10 -4 -21 -10 -24 -5 -3 -10 -14 -10 -24 0 -10 -7 -25 -16 -32 -9 -8
-30 -42 -46 -76 -15 -34 -33 -65 -38 -68 -10 -6 -70 -93 -70 -102 0 -10 -122
-144 -195 -214 -96 -92 -195 -175 -269 -224 -70 -47 -254 -144 -336 -177 -14
-6 -33 -14 -42 -19 -10 -5 -25 -9 -33 -9 -8 0 -23 -4 -33 -9 -24 -13 -118 -42
-169 -52 -24 -5 -64 -14 -90 -19 -27 -6 -86 -16 -133 -22 -108 -14 -728 -20
-735 -7 -4 5 -34 9 -69 9 -86 0 -345 58 -408 91 -10 5 -24 9 -33 9 -8 0 -30 9
-50 20 -20 11 -42 20 -49 20 -17 0 -192 91 -266 138 -106 67 -125 82 -195 141
-122 105 -247 235 -285 299 -10 17 -23 33 -29 36 -17 11 -97 137 -148 236 -27
52 -54 104 -60 115 -6 11 -17 40 -24 65 -7 25 -20 59 -29 75 -9 17 -22 57 -29
90 -7 33 -19 86 -27 117 -8 32 -14 70 -14 85 0 16 -8 60 -17 98 -17 66 -18
319 -20 4193 l-3 4122 52 70 c53 71 81 91 101 71 21 -21 47 -11 72 29 14 22
25 44 25 50 0 6 11 26 24 43 13 18 37 57 53 87 15 30 40 71 54 90 22 29 69
128 69 143 0 3 -7 8 -16 11 -11 4 -27 -3 -43 -18 -14 -14 -99 -89 -188 -168
-151 -132 -180 -166 -153 -183 6 -3 10 -15 10 -27 0 -22 -36 -78 -51 -78 -5 0
-10 889 -13 2283 -3 2213 -5 2350 -33 2472 -16 67 -95 235 -124 261 -10 9 -19
23 -19 31 0 48 -238 300 -343 363 -32 19 -77 47 -100 62 -23 15 -48 28 -54 28
-7 0 -36 11 -65 24 -29 13 -73 29 -98 36 -25 7 -56 16 -70 20 -98 31 -173 31
-6250 27 -4815 -2 -6095 -6 -6135 -16 -27 -7 -65 -15 -83 -18 -18 -3 -35 -9
-38 -14 -3 -5 -14 -9 -25 -9 -26 0 -214 -89 -276 -130 -47 -33 -139 -110 -198
-166 -29 -29 -59 -64 -129 -154 -55 -71 -145 -261 -166 -350 -7 -30 -21 -90
-31 -132 -18 -75 -19 -182 -19 -3243 0 -2962 -1 -3167 -17 -3193 -9 -15 -35
-48 -58 -74 -22 -26 -67 -78 -99 -116 -57 -66 -61 -68 -87 -58 -23 8 -32 7
-48 -9 -12 -10 -21 -22 -21 -27 0 -5 -13 -29 -30 -53 -16 -24 -30 -48 -30 -53
0 -5 -11 -21 -25 -36 -14 -15 -36 -52 -51 -84 -14 -31 -34 -66 -43 -77 -29
-33 -46 -84 -32 -98 15 -15 40 0 128 80 37 34 110 98 161 144 52 45 96 88 99
97 4 8 1 23 -5 33 -18 28 -15 47 12 74 13 13 34 38 47 57 36 52 87 107 93 100
11 -10 7 -6480 -4 -6487 -6 -3 -10 -26 -10 -51 0 -45 -13 -57 -37 -33 -8 8 -6
16 8 30 29 29 23 46 -35 102 -103 99 -314 277 -329 277 -23 0 -28 -27 -8 -52
10 -13 25 -36 33 -53 36 -72 103 -194 132 -240 17 -27 38 -63 47 -80 14 -27
20 -30 57 -27 36 2 46 -3 77 -34 31 -30 36 -41 31 -65 -3 -16 -9 -44 -12 -61
-3 -18 -14 -51 -23 -73 -31 -67 -41 -95 -41 -111 0 -23 -119 -263 -157 -315
-18 -26 -33 -50 -33 -55 0 -30 -348 -414 -375 -414 -7 0 -20 -9 -31 -21 -19
-22 -152 -112 -214 -146 -132 -73 -245 -124 -345 -154 -22 -6 -49 -15 -60 -20
-70 -29 -242 -64 -370 -75 -213 -19 -792 -6 -895 21 -14 3 -45 11 -70 16 -61
14 -121 30 -145 39 -11 4 -38 13 -60 19 -41 13 -77 27 -107 42 -10 5 -24 9
-31 9 -18 0 -239 121 -268 146 -8 8 -19 14 -23 14 -4 0 -49 31 -99 69 -88 65
-228 197 -310 292 -46 52 -157 209 -157 220 0 5 -18 36 -40 70 -22 34 -40 66
-40 70 0 5 -15 41 -33 81 -50 107 -57 127 -57 149 0 11 -7 30 -15 43 -18 27
-38 101 -55 206 -7 41 -17 79 -22 85 -11 12 -11 16758 1 16770 4 6 16 57 26
115 9 58 26 125 37 150 11 25 27 68 35 95 8 28 23 68 33 90 63 140 84 182 106
210 13 18 24 38 24 45 0 8 17 34 38 59 21 25 49 64 62 86 39 65 249 279 340
347 24 18 60 45 79 60 20 15 43 31 51 34 8 4 28 17 45 28 59 41 133 83 158 90
14 3 32 13 41 21 8 8 22 15 30 15 9 0 24 4 34 9 9 5 28 13 42 18 14 6 36 15
50 21 14 5 45 15 70 22 25 7 63 19 85 27 43 16 123 31 222 42 34 3 65 10 69
14 12 12 19168 2 19249 -11z m-3555 -4343 c36 -6 85 -14 110 -18 25 -4 59 -15
77 -24 18 -9 40 -17 49 -17 23 0 163 -73 237 -123 66 -45 231 -207 277 -272
41 -57 150 -278 150 -304 0 -12 8 -40 19 -64 10 -23 24 -72 30 -108 8 -48 11
-715 11 -2377 l0 -2310 -52 -61 c-28 -34 -55 -61 -59 -61 -5 0 -10 1061 -13
2358 -2 1432 -7 2388 -13 2437 -7 54 -23 112 -51 181 -23 55 -42 106 -42 112
0 6 -12 26 -27 44 -16 18 -37 51 -48 72 -22 43 -220 246 -240 246 -7 0 -18 7
-25 15 -7 9 -47 31 -89 51 -42 19 -92 43 -111 53 -19 10 -60 24 -90 31 -30 7
-65 16 -78 21 -31 12 -12223 12 -12254 0 -13 -5 -48 -14 -78 -21 -30 -7 -70
-21 -88 -31 -18 -10 -39 -19 -46 -19 -6 0 -33 -13 -59 -30 -26 -16 -54 -30
-62 -30 -8 0 -15 -3 -15 -8 0 -4 -13 -13 -29 -20 -45 -20 -212 -190 -269 -274
-29 -43 -52 -81 -52 -86 0 -4 -11 -32 -25 -61 -33 -67 -50 -121 -65 -196 -6
-33 -16 -83 -22 -112 -6 -28 -8 -70 -5 -93 3 -22 7 -1376 9 -3008 l3 -2967
-35 -43 c-19 -24 -47 -57 -62 -75 l-28 -32 0 3159 c0 1890 4 3172 9 3190 30
100 57 177 77 224 13 29 24 58 24 66 0 7 11 23 25 36 14 13 25 28 25 34 0 12
92 130 144 186 91 98 285 230 381 260 22 7 60 21 85 31 25 10 65 20 90 24 25
3 79 11 120 18 104 17 12082 13 12180 -4z m-13037 -10446 c-2 -1954 -7 -3284
-12 -3338 -6 -49 -12 -108 -15 -130 -3 -22 -10 -87 -17 -145 -12 -112 -25
-170 -39 -170 -16 0 -90 125 -84 140 43 99 44 192 44 3551 l0 3216 25 23 c13
12 36 40 51 61 15 22 32 39 38 39 9 0 11 -795 9 -3247z"/>
<path d="M5147 20184 c-3 -4 -23 -10 -44 -14 -100 -20 -236 -83 -365 -167 -76
-50 -207 -185 -246 -253 -14 -25 -33 -54 -42 -65 -10 -11 -25 -42 -35 -70 -9
-27 -30 -81 -45 -120 -16 -38 -34 -101 -40 -140 -16 -100 -9 -16527 7 -16602
7 -29 23 -74 36 -100 14 -27 33 -74 43 -105 9 -32 25 -65 36 -74 10 -10 18
-21 18 -26 0 -37 200 -252 284 -305 62 -40 209 -113 227 -113 9 0 31 -8 49
-17 65 -32 118 -36 470 -40 395 -5 454 1 574 58 22 11 46 19 54 19 18 0 106
49 180 99 116 79 279 274 317 377 7 17 21 44 32 60 11 16 23 43 27 59 15 65
28 133 37 205 6 47 11 2484 15 6530 3 3712 9 6463 14 6475 10 24 18 61 31 140
19 127 45 232 65 262 8 12 14 27 14 33 0 6 9 30 20 52 11 23 20 52 20 63 0 12
10 37 23 56 12 19 38 68 57 109 19 41 41 79 48 83 7 5 24 33 38 62 14 29 43
73 65 97 21 24 39 48 39 53 0 6 35 47 78 92 42 45 82 88 88 95 47 57 281 248
303 248 5 0 14 6 20 14 17 20 156 100 236 136 39 17 84 37 100 45 52 23 188
72 230 83 93 24 123 31 175 41 30 6 73 14 95 18 69 13 12419 9 12495 -5 130
-23 166 -30 240 -50 81 -21 98 -27 145 -47 92 -39 154 -64 183 -75 18 -7 73
-37 123 -66 50 -30 94 -54 99 -54 4 0 15 -9 25 -20 10 -11 23 -20 30 -20 7 0
20 -10 31 -21 10 -12 31 -29 45 -38 69 -42 279 -237 279 -258 0 -7 6 -13 14
-13 8 0 28 -23 46 -50 18 -28 40 -56 49 -63 45 -34 220 -322 221 -364 1 -10
14 -34 30 -53 17 -19 30 -42 30 -52 0 -9 5 -30 11 -45 6 -15 15 -37 19 -48 29
-71 64 -188 71 -230 52 -342 69 -706 62 -1290 0 -27 0 -106 0 -175 0 -69 1
-190 0 -270 0 -80 0 -1054 1 -2165 1 -1881 0 -2280 -1 -2655 0 -80 0 -169 0
-197 1 -48 1 -264 0 -388 0 -27 0 -288 0 -580 -1 -291 -1 -550 -1 -575 0 -135
0 -737 1 -810 1 -47 1 -137 1 -200 -1 -63 0 -151 0 -195 0 -134 0 -297 -2
-350 -1 -27 0 -106 1 -175 1 -69 1 -156 0 -195 -1 -38 -1 -695 -1 -1460 0
-765 -1 -1417 -2 -1450 -1 -33 1 -76 4 -95 23 -124 30 -151 37 -156 5 -3 9
-18 9 -34 0 -69 123 -276 219 -368 102 -97 226 -192 252 -192 6 0 22 -9 36
-20 14 -11 32 -20 39 -20 8 0 33 -9 57 -19 45 -21 84 -33 160 -50 29 -7 178
-11 385 -11 348 0 429 7 503 44 18 9 37 16 44 16 7 0 25 6 41 14 16 8 47 22
69 32 142 64 308 215 397 359 48 78 82 149 98 205 7 25 21 70 31 100 18 53 19
159 23 2660 2 1433 4 2610 4 2615 -6 730 -5 3078 2 3097 5 17 5 30 0 33 -6 4
-8 1141 -6 2903 2 1593 4 2905 4 2915 -1 123 -2 747 -1 762 0 11 -1 387 -3
835 -3 573 -7 822 -15 840 -6 14 -15 33 -20 42 -5 10 -9 31 -9 47 0 17 -4 33
-10 36 -5 3 -10 14 -10 24 0 22 -25 75 -55 116 -12 17 -28 45 -36 63 -8 17
-17 32 -21 32 -5 0 -8 7 -8 15 0 8 -4 15 -9 15 -5 0 -23 19 -40 42 -27 37 -83
90 -170 160 -55 45 -226 138 -254 138 -8 0 -29 8 -47 17 -19 9 -52 21 -74 27
-45 11 -19208 21 -19219 10z m19208 -68 c47 -9 52 -10 175 -68 52 -25 113 -58
136 -74 95 -67 151 -114 179 -147 49 -59 101 -130 117 -162 47 -89 78 -159 78
-176 0 -11 4 -27 10 -37 5 -9 16 -66 25 -125 13 -96 15 -1013 15 -8259 0
-7490 -1 -8160 -16 -8253 -9 -55 -21 -104 -25 -109 -5 -6 -9 -21 -9 -34 0 -13
-14 -52 -31 -86 -17 -33 -36 -70 -41 -81 -5 -12 -29 -48 -53 -80 -24 -33 -51
-70 -60 -82 -15 -22 -140 -127 -174 -148 -9 -5 -30 -19 -46 -30 -45 -31 -153
-81 -215 -100 -30 -9 -64 -20 -75 -25 -60 -28 -772 -28 -810 -1 -5 4 -30 13
-55 20 -203 60 -393 194 -510 362 -13 19 -27 36 -30 39 -17 14 -50 70 -50 84
0 9 -4 24 -9 34 -25 48 -51 113 -65 163 -15 51 -16 623 -16 6462 0 5529 -2
6412 -14 6449 -9 27 -16 97 -18 183 -2 108 -7 147 -19 165 -9 14 -19 59 -22
104 -9 103 -20 136 -93 289 -8 16 -14 35 -14 43 0 8 -4 23 -10 34 -23 45 -33
64 -51 97 -10 18 -19 39 -19 46 0 7 -17 35 -38 62 -21 28 -45 66 -55 86 -9 20
-28 50 -42 65 -13 16 -47 58 -76 94 -111 141 -329 346 -463 435 -72 48 -185
112 -286 161 -41 20 -83 41 -92 45 -10 5 -24 9 -31 9 -7 0 -32 9 -55 20 -22
11 -48 20 -56 20 -9 0 -30 8 -48 19 -19 10 -47 21 -63 24 -17 3 -52 11 -80 17
-82 18 -164 30 -280 42 -157 15 -12124 15 -12285 0 -189 -18 -225 -23 -234
-33 -6 -5 -21 -9 -35 -9 -29 0 -79 -15 -139 -41 -23 -11 -51 -19 -62 -19 -11
0 -28 -4 -38 -9 -16 -8 -36 -17 -94 -40 -13 -5 -44 -18 -70 -30 -26 -12 -52
-21 -58 -21 -5 0 -10 -4 -10 -10 0 -5 -7 -10 -15 -10 -37 0 -308 -182 -430
-289 -139 -122 -315 -320 -373 -421 -14 -25 -29 -47 -32 -50 -14 -11 -70 -111
-70 -124 0 -7 -7 -19 -15 -26 -8 -6 -23 -36 -34 -66 -11 -29 -24 -62 -29 -71
-44 -91 -72 -168 -72 -201 0 -11 -4 -24 -10 -27 -5 -3 -10 -23 -10 -44 0 -20
-12 -60 -26 -89 -14 -29 -30 -85 -36 -129 -8 -55 -13 -2016 -18 -6593 -4
-4014 -11 -6538 -16 -6575 -6 -33 -16 -70 -22 -83 -7 -12 -22 -50 -33 -84 -11
-34 -26 -69 -34 -78 -8 -9 -26 -38 -41 -65 -42 -80 -197 -249 -244 -267 -10
-4 -21 -11 -24 -17 -4 -5 -19 -16 -34 -24 -15 -8 -55 -29 -90 -46 -104 -54
-207 -83 -327 -93 -212 -18 -639 -11 -690 12 -11 5 -46 16 -79 25 -127 35
-287 134 -386 239 -36 38 -74 79 -86 90 -19 20 -59 88 -107 181 -11 22 -29 72
-40 110 -10 39 -24 86 -30 105 -17 51 -17 16530 0 16580 6 19 20 67 31 105 34
126 107 253 205 355 42 44 77 85 77 90 0 6 6 10 13 10 7 0 30 12 52 27 54 38
88 56 170 96 103 50 123 57 158 57 18 0 39 5 47 10 18 11 19142 7 19205 -4z"/>
<path d="M30900 19879 c-110 -10 -200 -69 -200 -132 0 -49 46 -86 145 -118 22
-7 44 -17 50 -21 15 -13 -14 -28 -53 -28 -41 0 -67 -13 -109 -53 -52 -49 -44
-84 35 -151 30 -26 99 -39 207 -39 151 0 222 29 263 109 22 42 -71 134 -134
134 -17 0 -37 7 -44 15 -10 12 -5 17 25 30 21 8 41 15 46 15 28 0 85 45 104
82 13 27 12 32 -8 64 -45 70 -175 107 -327 93z m259 -105 c36 -30 33 -39 -16
-59 -26 -11 -74 -15 -177 -15 -123 0 -145 3 -173 20 -18 11 -33 24 -33 30 0 6
15 19 33 30 28 18 50 20 184 20 148 0 152 -1 182 -26z m-44 -268 c46 -10 61
-17 63 -32 6 -46 -6 -49 -204 -49 -170 0 -187 2 -200 19 -9 12 -10 24 -4 35
20 36 226 52 345 27z"/>
<path d="M31020 19290 c-10 -19 -21 -20 -155 -20 -136 0 -145 -1 -155 -21 -8
-15 -8 -24 0 -34 10 -12 160 -93 258 -139 23 -11 42 -26 42 -33 0 -7 -19 -21
-43 -32 -46 -21 -67 -53 -67 -101 0 -24 -4 -30 -21 -30 -30 0 -104 54 -129 95
-25 40 -43 41 -48 4 -4 -36 50 -111 106 -146 62 -39 165 -73 216 -73 86 0 174
45 205 103 l21 40 -26 44 c-23 40 -50 59 -107 77 -15 5 -17 16 -15 83 l3 78
54 5 c61 6 84 27 65 58 -8 12 -27 18 -63 20 -38 2 -55 8 -64 23 -16 26 -63 25
-77 -1z m124 -345 c67 -28 58 -62 -24 -89 -61 -20 -93 -20 -130 -1 -21 11 -30
23 -30 40 0 19 9 27 53 44 64 24 84 25 131 6z"/>
<path d="M680 11353 c-26 -10 -71 -57 -93 -98 -18 -35 -21 -57 -22 -181 0
-139 0 -141 30 -190 23 -37 40 -52 71 -63 60 -21 90 -2 132 79 33 65 33 65 30
190 -3 124 -4 127 -38 184 -28 46 -75 90 -92 85 -2 0 -10 -3 -18 -6z m48 -109
c21 -61 13 -321 -11 -357 -41 -63 -67 11 -67 195 0 126 2 147 20 176 25 41 41
37 58 -14z"/>
<path d="M29661 11338 c-46 -25 -62 -48 -82 -118 -7 -25 -15 -49 -17 -54 -9
-16 -31 38 -32 75 0 54 -57 109 -111 109 -32 0 -46 -6 -69 -32 -16 -17 -34
-45 -40 -62 -7 -17 -16 -39 -21 -48 -20 -39 1 -126 44 -178 18 -21 53 -40 77
-40 24 0 27 -29 6 -68 -14 -25 -34 -45 -81 -77 -16 -11 -17 -16 -8 -26 9 -9
21 -9 56 0 72 21 147 125 147 206 0 22 4 45 9 51 5 5 11 22 13 37 l3 28 16
-33 c9 -18 22 -46 30 -61 14 -31 72 -61 102 -53 15 4 17 0 11 -32 -7 -41 -67
-112 -95 -112 -20 0 -30 -22 -19 -40 7 -11 16 -11 52 -1 59 18 132 94 146 152
6 24 21 70 33 103 24 63 24 67 -18 181 -24 66 -43 92 -77 105 -34 13 -26 14
-75 -12z m81 -83 c9 -12 10 -147 2 -169 -7 -19 -49 -21 -61 -3 -36 56 -41 132
-12 182 21 35 22 36 43 18 11 -10 24 -22 28 -28z m-306 18 c7 -10 14 -30 14
-45 0 -15 5 -39 10 -53 7 -18 7 -39 0 -66 -9 -31 -15 -39 -34 -39 -28 0 -41
14 -50 55 -16 68 -17 92 -2 128 18 40 41 48 62 20z"/>
<path d="M30244 11350 c-27 -11 -84 -83 -84 -106 0 -11 -7 -37 -15 -59 -20
-55 -18 -156 4 -239 31 -119 106 -165 181 -113 59 40 80 106 80 248 0 60 -6
120 -13 142 -19 54 -67 115 -101 127 -16 5 -29 10 -30 9 -1 0 -10 -4 -22 -9z
m66 -270 c0 -165 -1 -178 -21 -199 l-21 -22 -15 20 c-36 53 -35 350 2 391 17
19 19 19 37 4 16 -15 18 -35 18 -194z"/>
<path d="M70 11334 c-25 -16 -50 -56 -50 -81 0 -7 -4 -13 -10 -13 -17 0 -12
-143 6 -179 19 -39 68 -71 107 -71 15 0 27 -3 27 -7 -2 -27 -52 -97 -89 -124
-40 -29 -43 -33 -27 -44 30 -22 82 3 141 67 66 71 78 108 78 248 0 111 -13
158 -52 194 -28 25 -99 31 -131 10z m79 -71 c8 -16 17 -36 22 -45 15 -30 11
-110 -8 -130 -43 -48 -83 -1 -83 98 0 94 41 138 69 77z"/>
<path d="M370 11311 c-16 -16 -32 -41 -35 -57 -3 -16 -10 -37 -16 -46 -13 -25
-11 -74 4 -85 6 -6 24 -13 39 -17 34 -8 61 -36 87 -92 18 -38 19 -45 6 -72 -8
-16 -24 -37 -35 -47 -19 -17 -21 -17 -60 0 -32 15 -42 15 -55 5 -21 -18 -19
-46 6 -71 48 -48 157 -1 198 84 45 92 16 199 -70 263 -27 20 -49 39 -49 43 0
16 26 31 55 31 57 0 95 46 63 78 -7 7 -34 12 -61 12 -40 0 -53 -5 -77 -29z"/>
<path d="M29105 11324 c-11 -8 -26 -19 -33 -23 -11 -6 -9 -16 8 -48 19 -38 21
-53 17 -204 -2 -90 -8 -179 -12 -196 l-7 -33 61 0 c61 0 76 11 51 36 -6 6 -11
108 -12 244 l-3 235 -25 2 c-14 2 -34 -4 -45 -13z"/>
<path d="M29942 11317 c-12 -13 -22 -30 -22 -38 0 -8 -9 -27 -20 -44 -35 -53
-19 -125 28 -125 40 0 112 -87 112 -135 0 -65 -61 -115 -99 -81 -21 19 -52 21
-69 4 -33 -33 7 -88 63 -88 76 0 124 38 152 120 15 42 17 136 3 145 -5 3 -10
14 -10 23 0 24 -46 74 -83 92 -46 22 -44 54 3 58 52 4 88 21 96 45 9 30 -20
47 -81 47 -41 0 -56 -5 -73 -23z"/>
<path d="M10200 10425 c-30 -30 -60 -55 -67 -55 -7 0 -13 -4 -13 -8 0 -4 -13
-16 -30 -25 -26 -16 -30 -24 -30 -63 0 -52 10 -55 71 -23 68 34 69 33 69 -175
0 -211 6 -236 55 -236 17 0 36 5 43 12 9 9 12 91 12 306 0 269 -2 296 -17 308
-28 21 -35 18 -93 -41z"/>
<path d="M10612 10463 c-30 -10 -51 -27 -70 -56 -61 -91 -67 -112 -67 -252 0
-126 1 -132 32 -195 18 -36 43 -76 56 -88 42 -39 134 -54 194 -31 36 13 103
78 103 99 0 9 4 20 10 26 13 13 30 134 30 218 0 66 -15 141 -32 160 -4 6 -8
17 -8 26 0 23 -69 85 -109 99 -44 14 -86 13 -139 -6z m130 -105 c44 -47 48
-65 48 -215 0 -131 -1 -137 -27 -179 -22 -34 -36 -45 -62 -50 -31 -6 -38 -3
-78 39 l-43 46 0 141 c0 155 10 192 58 230 36 29 69 25 104 -12z"/>
<path d="M11102 10467 c-48 -15 -122 -101 -122 -141 0 -18 -6 -38 -12 -44 -9
-9 -13 -49 -13 -127 0 -78 4 -118 13 -126 6 -7 12 -30 12 -51 0 -33 7 -46 49
-88 53 -53 91 -66 164 -58 50 6 108 42 132 81 42 71 59 273 33 401 -11 50 -20
68 -54 100 -62 59 -129 77 -202 53z m108 -90 c38 -31 60 -123 60 -251 0 -141
-33 -207 -103 -209 -30 -1 -44 6 -70 31 l-32 32 0 163 c0 160 0 163 28 205 24
37 32 42 65 42 20 0 44 -6 52 -13z"/>
<path d="M12418 10466 c-16 -12 -18 -39 -18 -303 0 -268 1 -291 18 -306 22
-20 67 -22 79 -4 4 6 13 62 18 122 l10 110 131 5 c138 5 138 5 202 64 32 30
32 30 32 128 l0 98 -41 38 c-35 31 -53 39 -113 49 -101 16 -296 16 -318 -1z
m338 -104 c21 -15 44 -57 44 -83 0 -15 -12 -41 -26 -59 l-26 -31 -112 3 -111
3 -3 74 c-2 41 -1 80 2 88 4 10 32 13 113 13 59 0 113 -4 119 -8z"/>
<path d="M12996 10458 c-13 -19 -15 -60 -9 -307 3 -163 10 -291 16 -298 5 -7
22 -13 38 -13 46 0 59 30 59 141 0 123 2 129 50 129 74 0 149 -50 184 -124 9
-19 27 -48 39 -63 13 -15 31 -41 41 -56 15 -25 22 -28 64 -25 32 2 48 8 50 18
3 19 -89 174 -129 215 -35 37 -36 51 -5 59 13 3 42 26 65 51 39 42 41 48 41
106 0 46 -5 67 -20 87 -12 15 -29 38 -38 51 -15 19 -34 26 -107 37 -50 7 -143
13 -207 14 -109 0 -118 -1 -132 -22z m327 -80 c77 -44 97 -96 52 -138 -37 -35
-90 -50 -181 -50 -66 0 -83 3 -88 16 -12 31 -7 172 7 177 26 11 188 7 210 -5z"/>
<path d="M13610 10461 c-6 -12 -10 -129 -10 -309 0 -234 3 -292 14 -301 9 -8
81 -11 237 -9 l224 3 3 38 3 37 -174 0 c-205 0 -207 1 -207 94 0 97 -2 96 170
96 157 0 180 6 180 50 0 49 -3 50 -166 50 -147 0 -153 1 -168 22 -18 26 -21
90 -6 119 10 18 23 19 168 19 145 0 160 2 180 20 28 26 28 41 -1 68 -22 21
-32 22 -230 22 -194 0 -207 -1 -217 -19z"/>
<path d="M14284 10465 c-38 -17 -104 -89 -104 -113 0 -10 -6 -24 -12 -30 -10
-10 -10 -17 0 -32 6 -11 12 -29 12 -40 0 -11 3 -20 8 -20 4 0 12 -10 17 -22
14 -30 151 -98 199 -98 28 0 109 -29 135 -49 20 -15 23 -24 17 -55 -10 -52
-63 -86 -134 -86 -76 0 -152 47 -162 99 -5 24 -10 26 -58 29 -41 2 -54 0 -58
-13 -13 -32 49 -133 101 -165 109 -67 241 -64 338 9 61 45 77 75 77 144 0 83
-54 150 -136 167 -22 5 -56 13 -76 19 -21 6 -55 15 -75 20 -90 23 -120 87 -63
135 26 21 42 26 87 26 68 0 101 -19 136 -76 21 -35 32 -44 55 -44 67 0 70 56
6 134 -32 40 -52 56 -69 56 -13 0 -27 5 -30 10 -9 15 -175 11 -211 -5z"/>
<path d="M14762 10468 c-9 -9 -12 -93 -12 -315 0 -280 1 -304 18 -311 9 -4
110 -7 223 -7 189 0 209 2 228 19 25 23 26 30 5 50 -13 13 -44 16 -178 16
-128 0 -166 3 -175 14 -8 9 -11 43 -9 93 l3 78 150 3 c160 3 185 11 185 56 0
43 -9 45 -175 48 l-160 3 -3 54 c-6 106 -14 101 161 101 157 0 177 4 190 42 3
9 -3 28 -14 42 l-20 26 -203 0 c-144 0 -205 -3 -214 -12z"/>
<path d="M15329 10463 c-11 -12 -15 -78 -17 -302 -3 -330 -4 -326 75 -322 22
1 23 2 25 203 2 150 6 202 15 206 7 2 16 -5 20 -15 4 -10 16 -27 26 -38 11
-11 35 -43 53 -72 19 -28 38 -54 44 -58 5 -3 17 -23 27 -43 9 -20 42 -69 71
-109 58 -76 91 -95 131 -73 20 10 21 18 21 313 0 222 -3 306 -12 315 -16 16
-49 15 -70 -2 -16 -12 -18 -35 -18 -216 l0 -203 -20 18 c-11 10 -34 42 -50 70
-16 28 -39 62 -51 75 -11 14 -33 45 -47 70 -42 71 -129 187 -147 194 -29 11
-62 6 -76 -11z"/>
<path d="M15901 10452 c-8 -20 -9 -36 -2 -55 10 -26 12 -27 96 -27 83 0 86 -1
95 -26 6 -14 10 -131 10 -259 0 -227 1 -235 21 -245 16 -9 26 -8 44 4 l25 16
2 253 3 252 95 5 c89 5 95 6 109 31 13 24 13 29 -2 53 l-17 26 -234 0 -234 0
-11 -28z"/>
<path d="M16632 10457 c-23 -25 -72 -139 -72 -168 0 -10 -4 -21 -10 -24 -5 -3
-10 -16 -10 -29 0 -12 -5 -27 -10 -32 -12 -12 -50 -113 -50 -133 0 -8 -15 -46
-34 -85 -19 -39 -37 -86 -41 -103 -6 -30 -4 -34 21 -44 35 -13 73 -4 81 19 20
59 69 155 84 163 21 11 189 12 206 1 7 -5 25 -42 39 -83 14 -40 35 -82 46 -91
25 -22 81 -23 99 -2 11 13 10 22 -8 57 -12 23 -25 53 -28 67 -12 42 -126 315
-156 372 -5 10 -9 25 -9 33 0 18 -18 52 -44 83 -26 30 -75 29 -104 -1z m81
-199 c10 -22 25 -61 34 -86 18 -56 10 -63 -67 -60 -54 3 -55 4 -58 34 -2 18 6
47 17 68 12 20 21 42 21 49 0 13 19 37 30 37 3 0 13 -19 23 -42z"/>
<path d="M17002 10468 c-7 -7 -12 -26 -12 -43 0 -42 25 -54 120 -57 l75 -3 3
-258 2 -258 25 -11 c19 -8 31 -8 50 0 l25 12 0 260 0 260 93 0 c92 0 94 1 106
27 9 20 9 33 0 55 l-11 28 -232 0 c-167 0 -235 -3 -244 -12z"/>
<path d="M17586 10464 c-3 -9 -6 -150 -6 -314 0 -286 1 -300 19 -310 24 -12
66 1 75 25 3 9 6 141 6 294 0 234 -2 280 -16 299 -18 26 -69 30 -78 6z"/>
<path d="M17985 10471 c-3 -6 -16 -11 -27 -11 -34 0 -83 -37 -129 -97 l-44
-56 0 -146 c0 -164 7 -187 72 -244 20 -18 41 -37 47 -42 23 -23 121 -55 165
-55 112 0 233 66 267 146 60 138 61 240 3 370 -21 48 -95 115 -142 128 -51 14
-204 19 -212 7z m178 -103 c78 -52 88 -75 93 -213 3 -78 1 -96 -19 -135 -50
-100 -166 -131 -260 -70 -74 50 -90 86 -89 205 0 120 14 152 86 202 40 28 57
33 103 33 40 0 64 -6 86 -22z"/>
<path d="M18472 10468 c-9 -9 -12 -87 -12 -315 l0 -303 25 -10 c16 -6 34 -6
50 0 l25 10 0 212 0 212 32 -45 c18 -24 47 -62 65 -83 18 -22 33 -45 33 -52 0
-6 7 -17 15 -24 9 -7 22 -27 31 -45 8 -18 36 -56 61 -86 25 -29 49 -63 54 -76
10 -27 52 -39 88 -27 l26 9 3 304 c2 216 -1 308 -9 317 -6 8 -29 14 -50 14
l-39 0 0 -182 c0 -256 -7 -271 -75 -166 -22 34 -48 69 -57 77 -10 8 -30 40
-44 71 -15 30 -33 62 -41 70 -8 8 -31 40 -51 70 -34 49 -42 55 -77 58 -23 2
-46 -3 -53 -10z"/>
<path d="M11468 10293 c-3 -10 -3 -116 0 -235 l5 -218 23 0 c35 0 44 29 44
149 0 88 4 119 21 158 31 74 79 101 122 69 15 -12 17 -33 17 -178 0 -150 2
-166 19 -182 11 -10 31 -16 48 -14 l28 3 3 150 3 150 41 42 c48 49 75 54 106
20 21 -22 22 -33 22 -183 0 -171 3 -184 50 -184 14 0 31 5 38 12 15 15 17 378
2 378 -5 0 -10 9 -10 19 0 11 -13 29 -29 40 -40 29 -145 29 -181 1 -32 -25
-62 -25 -85 0 -26 29 -141 29 -177 0 -25 -19 -26 -19 -43 0 -22 25 -61 26 -67
3z"/>
<path d="M11950 9440 c-8 -5 -25 -10 -38 -10 -48 0 -152 -91 -152 -133 0 -9
-4 -18 -9 -21 -24 -15 -51 -99 -51 -160 0 -56 6 -76 41 -145 44 -87 72 -116
145 -152 95 -45 280 -24 377 43 27 19 27 19 27 143 0 103 -3 124 -16 129 -9 3
-64 6 -124 6 -114 0 -140 -9 -140 -49 0 -36 32 -51 109 -51 l72 0 -3 -52 c-3
-51 -3 -52 -48 -68 -110 -41 -110 -41 -175 -19 -74 26 -85 36 -129 111 -48 79
-49 133 -5 215 18 32 39 66 47 76 26 30 75 49 137 54 51 4 66 1 99 -20 22 -14
51 -42 66 -63 38 -57 100 -56 100 1 0 34 -62 118 -101 137 -77 37 -193 51
-229 28z"/>
<path d="M10078 9433 c-17 -4 -18 -28 -18 -313 0 -271 2 -309 16 -314 26 -10
341 -7 368 4 20 7 26 17 26 38 0 47 -13 52 -151 52 -70 0 -134 3 -143 6 -14 5
-16 38 -16 260 l0 254 -26 10 c-26 10 -28 11 -56 3z"/>
<path d="M10550 9121 c0 -272 2 -310 16 -315 9 -3 104 -6 213 -6 162 0 200 3
219 16 24 17 29 56 9 73 -8 6 -79 12 -183 13 l-169 3 -3 86 -3 87 148 4 c81 3
156 9 166 13 20 8 23 55 5 73 -8 8 -59 12 -165 12 l-154 0 3 83 3 82 170 5
170 5 0 35 0 35 -222 3 -223 2 0 -309z"/>
<path d="M11115 9413 c-4 -10 -10 -142 -12 -293 -5 -265 -5 -276 15 -300 17
-21 24 -23 48 -15 l29 10 3 213 c2 175 5 212 17 212 7 0 16 -8 20 -18 3 -11
24 -43 46 -73 22 -30 49 -72 60 -94 11 -22 34 -59 52 -82 18 -23 43 -58 57
-79 45 -67 76 -94 109 -94 20 0 34 7 41 19 7 13 8 118 3 315 l-6 296 -32 0
c-45 0 -55 -16 -55 -84 0 -34 -3 -118 -7 -188 -7 -144 -9 -146 -69 -53 -17 28
-39 57 -48 64 -9 7 -16 17 -16 22 0 4 -15 29 -32 54 -18 26 -38 54 -43 63 -40
66 -70 108 -79 114 -6 4 -30 8 -52 8 -31 0 -44 -5 -49 -17z"/>
<path d="M12364 9405 c-11 -43 10 -55 90 -55 42 0 79 -5 89 -12 15 -12 17 -43
19 -273 l3 -260 23 -3 c13 -2 34 4 48 12 l24 16 0 254 c0 290 -9 266 98 266
80 0 95 8 90 46 l-3 29 -237 3 -238 2 -6 -25z"/>
<path d="M12920 9410 c-7 -12 -9 -118 -8 -302 l3 -282 27 -15 c20 -12 34 -13
55 -5 l28 9 3 125 c1 70 7 129 14 137 7 9 43 13 128 13 65 0 125 -3 134 -6 13
-5 16 -26 16 -130 0 -121 1 -124 25 -140 29 -19 70 -12 80 13 8 22 6 430 -3
528 l-7 70 -36 3 c-48 4 -59 -23 -59 -138 l0 -90 -145 0 -145 0 0 103 c0 67
-4 107 -12 115 -20 20 -86 15 -98 -8z"/>
<path d="M11545 1916 c-87 -24 -176 -105 -199 -181 -11 -35 -12 -204 -1 -257
7 -39 75 -126 128 -165 17 -13 43 -23 58 -23 15 0 31 -4 34 -10 3 -5 33 -10
65 -10 32 0 62 5 65 10 3 6 18 10 33 10 59 0 169 124 164 185 -2 25 -29 45
-62 45 -22 0 -32 -9 -55 -54 -33 -63 -78 -90 -148 -89 -68 2 -112 25 -146 80
-29 45 -31 54 -31 148 0 98 1 102 34 151 29 42 43 54 85 68 59 19 75 20 121 3
51 -18 58 -24 80 -68 18 -33 25 -39 53 -39 57 0 73 40 41 97 -53 89 -195 134
-319 99z"/>
<path d="M16415 1920 c-11 -4 -35 -14 -53 -21 -19 -7 -39 -17 -45 -23 -7 -6
-23 -18 -37 -27 -34 -22 -70 -93 -70 -139 0 -22 -4 -42 -10 -45 -5 -3 -10 -28
-10 -55 0 -27 5 -52 10 -55 6 -3 10 -24 10 -46 0 -21 4 -47 9 -57 5 -9 15 -30
22 -46 17 -36 109 -108 152 -120 53 -14 148 -19 171 -8 11 5 40 18 63 27 47
20 133 124 133 161 0 50 -86 76 -107 32 -6 -13 -14 -31 -17 -40 -3 -10 -24
-31 -48 -48 -40 -29 -48 -31 -108 -28 -77 4 -120 29 -150 88 -26 50 -28 210
-5 258 40 80 136 127 210 102 42 -14 105 -70 105 -94 0 -12 9 -16 36 -16 43 0
74 15 74 37 0 16 -58 101 -84 122 -48 40 -197 64 -251 41z"/>
<path d="M10188 1909 c-17 -9 -18 -34 -18 -300 0 -181 4 -298 10 -310 14 -25
54 -25 80 1 18 18 20 33 20 130 0 98 2 110 19 120 33 17 96 12 124 -10 35 -28
120 -137 140 -181 21 -45 44 -65 84 -74 72 -15 92 16 48 76 -13 19 -34 52 -46
74 -12 22 -35 55 -51 73 -35 41 -33 70 7 92 46 25 77 93 71 158 -6 70 -32 112
-86 140 -41 20 -57 22 -215 22 -97 0 -178 -5 -187 -11z m330 -95 c45 -9 68
-77 39 -115 -24 -32 -56 -39 -166 -39 l-111 0 0 73 c0 41 3 77 7 80 8 9 190 9
231 1z"/>
<path d="M10808 1909 c-17 -9 -18 -34 -18 -302 0 -167 4 -298 10 -307 8 -13
42 -14 227 -11 128 2 223 7 231 13 17 14 15 53 -4 72 -13 13 -44 16 -185 16
l-169 0 0 85 0 85 148 0 c161 0 192 9 192 55 0 49 -20 55 -170 55 -76 0 -145
3 -154 6 -12 5 -16 21 -16 74 l0 67 98 6 c53 4 129 7 169 7 78 0 98 13 87 57
-5 19 -17 20 -162 26 -210 9 -264 8 -284 -4z"/>
<path d="M11988 1909 c-17 -9 -18 -35 -18 -310 l0 -299 28 -11 c17 -7 106 -9
256 -6 227 4 229 4 247 28 10 13 19 31 19 39 0 8 10 36 23 62 l22 48 112 0
c107 0 113 -1 128 -23 8 -13 18 -38 21 -56 4 -18 22 -48 40 -68 31 -32 37 -35
71 -28 21 4 41 9 45 11 14 9 8 35 -12 61 -11 14 -20 31 -20 38 0 6 -6 25 -14
41 -8 16 -21 47 -31 69 -9 22 -25 58 -35 80 -10 22 -28 69 -40 105 -35 106
-92 211 -120 222 -44 17 -84 2 -108 -41 -12 -21 -22 -48 -22 -60 0 -12 -4 -29
-9 -39 -8 -17 -14 -29 -45 -102 -8 -19 -21 -46 -29 -60 -8 -14 -25 -59 -38
-100 -12 -41 -32 -94 -44 -117 -21 -39 -23 -41 -39 -25 -13 14 -43 18 -149 22
l-132 5 -3 253 -2 253 -26 9 c-32 13 -54 12 -76 -1z m735 -232 c15 -50 28 -98
27 -105 0 -10 -18 -12 -67 -10 -61 3 -68 5 -71 25 -2 12 8 44 22 72 14 28 26
59 26 69 0 17 18 42 30 42 3 0 18 -42 33 -93z"/>
<path d="M13063 1913 c-10 -3 -13 -76 -13 -314 l0 -309 40 0 c29 0 42 5 50 19
12 23 14 587 3 594 -15 9 -68 16 -80 10z"/>
<path d="M13283 1910 l-23 -9 0 -293 c0 -161 4 -299 9 -306 9 -14 77 -19 89
-7 4 4 8 94 10 201 3 160 6 194 18 194 9 0 14 -11 14 -34 0 -19 5 -38 10 -41
6 -3 10 -16 10 -27 0 -29 16 -79 51 -158 15 -36 34 -82 41 -102 11 -36 14 -38
54 -38 41 0 43 1 60 48 9 26 30 79 45 117 15 39 30 81 34 95 15 57 48 131 56
123 5 -5 10 -92 11 -193 l3 -185 44 0 c42 0 45 2 53 33 5 18 8 153 6 299 -3
249 -4 265 -22 279 -41 29 -130 12 -140 -28 -4 -13 -11 -41 -17 -63 -6 -22
-15 -48 -20 -57 -5 -10 -9 -31 -9 -47 0 -16 -7 -34 -15 -41 -8 -7 -24 -44 -36
-84 -42 -142 -62 -164 -75 -88 -7 46 -26 104 -36 117 -4 5 -8 22 -8 37 0 16
-7 40 -16 53 -15 23 -27 60 -41 125 -11 55 -27 78 -56 84 -40 8 -78 7 -104 -4z"/>
<path d="M14270 1911 l-55 -6 -2 -295 c-2 -162 1 -301 5 -308 6 -9 51 -12 169
-13 153 0 174 3 240 34 32 14 103 113 103 142 0 13 5 27 10 30 16 10 12 194
-5 243 -21 60 -73 126 -119 153 -35 19 -56 23 -165 25 -69 1 -151 -1 -181 -5z
m313 -139 l47 -46 0 -122 c0 -117 -1 -124 -26 -153 -42 -51 -79 -62 -185 -59
l-94 3 -3 205 c-2 179 0 206 14 217 11 8 45 10 107 6 l92 -5 48 -46z"/>
<path d="M14853 1910 l-23 -9 0 -295 c0 -295 0 -296 23 -310 28 -19 53 -20
275 -11 178 8 183 9 188 31 8 33 -3 61 -29 68 -12 3 -92 6 -178 6 -134 0 -158
2 -163 16 -11 28 -6 130 6 142 8 8 56 12 148 12 147 0 180 10 180 53 0 48 -10
52 -157 55 -192 3 -183 0 -183 71 0 35 5 63 13 68 6 6 82 13 167 17 120 6 159
11 172 23 20 18 22 31 9 52 -8 12 -50 15 -218 17 -114 2 -218 -1 -230 -6z"/>
<path d="M15373 1910 c-24 -10 -30 -25 -13 -35 6 -3 10 -18 10 -32 0 -13 8
-37 18 -51 10 -15 24 -47 31 -72 7 -25 17 -53 22 -62 5 -10 9 -27 9 -38 0 -10
11 -39 24 -63 25 -44 62 -139 75 -192 17 -66 27 -75 87 -75 43 0 56 4 60 18
18 52 50 129 60 139 6 6 24 51 39 100 15 48 36 104 46 124 10 20 19 45 19 56
0 10 4 23 9 28 5 6 19 39 32 74 22 63 22 64 3 78 -22 17 -74 10 -90 -12 -6 -8
-16 -33 -23 -57 -7 -24 -17 -51 -22 -60 -5 -10 -9 -27 -9 -39 0 -12 -9 -38
-20 -58 -10 -20 -26 -58 -35 -85 -22 -68 -56 -146 -64 -146 -9 0 -61 116 -78
175 -8 28 -19 58 -24 67 -5 10 -9 24 -9 33 0 8 -9 30 -20 50 -11 20 -20 44
-20 55 0 10 -4 22 -10 25 -5 3 -10 15 -10 25 0 10 -3 21 -7 23 -19 11 -70 15
-90 7z"/>
<path d="M16008 1909 c-17 -9 -18 -35 -18 -310 l0 -299 23 -11 c15 -7 31 -7
50 0 l27 11 0 300 0 300 -26 10 c-31 12 -34 12 -56 -1z"/>
<path d="M16853 1913 c-10 -4 -13 -75 -13 -308 0 -230 3 -305 13 -313 9 -8
338 -18 419 -13 40 3 65 70 36 99 -8 8 -62 12 -178 12 -116 0 -170 4 -178 12
-16 16 -16 130 0 146 8 8 58 12 158 12 130 0 149 2 163 18 10 10 17 31 17 46
0 45 -42 55 -192 49 -95 -5 -131 -3 -143 7 -22 18 -21 125 1 134 9 3 82 6 163
6 141 0 148 1 169 23 27 29 28 53 3 67 -20 10 -414 13 -438 3z"/>
</g>
</svg>
